SplineFontDB: 3.2
FontName: FdSymbolC-Medium
FullName: FdSymbolC-Medium
FamilyName: FdSymbolC
Weight: Medium
Copyright: Copyright (c) 2012, Michael Ummels. This Font Software is licensed under the SIL Open Font License, Version 1.1.
Version: 1.008
ItalicAngle: 0
UnderlinePosition: -100
UnderlineWidth: 50
Ascent: 800
Descent: 200
InvalidEm: 0
LayerCount: 2
Layer: 0 0 "Back" 1
Layer: 1 0 "Fore" 0
OS2Version: 0
OS2_WeightWidthSlopeOnly: 0
OS2_UseTypoMetrics: 0
CreationTime: 1739777133
ModificationTime: 1739777134
OS2TypoAscent: 0
OS2TypoAOffset: 1
OS2TypoDescent: 0
OS2TypoDOffset: 1
OS2TypoLinegap: 0
OS2WinAscent: 0
OS2WinAOffset: 1
OS2WinDescent: 0
OS2WinDOffset: 1
HheadAscent: 0
HheadAOffset: 1
HheadDescent: 0
HheadDOffset: 1
OS2Vendor: 'PfEd'
DEI: 91125
Encoding: Custom
UnicodeInterp: none
NameList: AGL For New Fonts
DisplaySize: -48
AntiAlias: 1
FitToEm: 0
BeginPrivate: 2
BlueValues 31 [-10 0 546 556 707 717 754 764]
OtherBlues 11 [-230 -220]
EndPrivate
BeginChars: 256 238

StartChar: arrowright
Encoding: 0 8594 0
Width: 930
Flags: HW
HStem: 257 86<90 693>
LayerCount: 2
Fore
SplineSet
858 300 m 1
 671 114 l 1
 611 174 l 1
 693 257 l 1
 90 257 l 1
 90 343 l 1
 693 343 l 1
 611 426 l 1
 671 486 l 1
 858 300 l 1
EndSplineSet
EndChar

StartChar: arrowup
Encoding: 1 8593 1
Width: 578
Flags: HW
VStem: 246 86<-75 528>
LayerCount: 2
Fore
SplineSet
289 693 m 1
 475 506 l 1
 415 446 l 1
 332 528 l 1
 332 -75 l 1
 246 -75 l 1
 246 528 l 1
 163 446 l 1
 103 506 l 1
 289 693 l 1
EndSplineSet
EndChar

StartChar: arrowleft
Encoding: 2 8592 2
Width: 930
Flags: HW
HStem: 257 86<237 840>
LayerCount: 2
Fore
SplineSet
72 300 m 1
 259 486 l 1
 319 426 l 1
 237 343 l 1
 840 343 l 1
 840 257 l 1
 237 257 l 1
 319 174 l 1
 259 114 l 1
 72 300 l 1
EndSplineSet
EndChar

StartChar: arrowdown
Encoding: 3 8595 3
Width: 578
Flags: HW
VStem: 246 86<72 675>
LayerCount: 2
Fore
SplineSet
289 -93 m 1
 103 94 l 1
 163 154 l 1
 246 72 l 1
 246 675 l 1
 332 675 l 1
 332 72 l 1
 415 154 l 1
 475 94 l 1
 289 -93 l 1
EndSplineSet
EndChar

StartChar: uni2197
Encoding: 4 8599 4
Width: 992
Flags: HW
HStem: 492 86<510 627>
VStem: 688 86<314 431>
LayerCount: 2
Fore
SplineSet
774 578 m 1
 774 314 l 1
 688 314 l 1
 688 431 l 1
 261 4 l 1
 200 65 l 1
 627 492 l 1
 510 492 l 1
 510 578 l 1
 774 578 l 1
EndSplineSet
EndChar

StartChar: uni2196
Encoding: 5 8598 5
Width: 992
Flags: HW
HStem: 492 86<365 482>
VStem: 218 86<314 431>
LayerCount: 2
Fore
SplineSet
218 578 m 1
 482 578 l 1
 482 492 l 1
 365 492 l 1
 791 65 l 1
 731 4 l 1
 304 431 l 1
 304 314 l 1
 218 314 l 1
 218 578 l 1
EndSplineSet
EndChar

StartChar: uni2199
Encoding: 6 8601 6
Width: 992
Flags: HW
HStem: 22 86<365 482>
VStem: 218 86<169 286>
LayerCount: 2
Fore
SplineSet
218 22 m 1
 218 286 l 1
 304 286 l 1
 304 169 l 1
 731 596 l 1
 791 535 l 1
 365 108 l 1
 482 108 l 1
 482 22 l 1
 218 22 l 1
EndSplineSet
EndChar

StartChar: uni2198
Encoding: 7 8600 7
Width: 992
Flags: HW
HStem: 22 86<510 627>
VStem: 688 86<169 286>
LayerCount: 2
Fore
SplineSet
774 22 m 1
 510 22 l 1
 510 108 l 1
 627 108 l 1
 200 535 l 1
 261 596 l 1
 688 169 l 1
 688 286 l 1
 774 286 l 1
 774 22 l 1
EndSplineSet
EndChar

StartChar: arrowdblright
Encoding: 8 8658 8
Width: 1080
Flags: HW
HStem: 160 86<90 746> 354 87<90 746>
LayerCount: 2
Fore
SplineSet
1008 300 m 1
 775 67 l 1
 714 128 l 1
 746 160 l 1
 90 160 l 1
 90 246 l 1
 832 246 l 1
 886 300 l 1
 832 354 l 1
 90 354 l 1
 90 441 l 1
 746 440 l 1
 714 472 l 1
 775 533 l 1
 1008 300 l 1
EndSplineSet
EndChar

StartChar: arrowdblup
Encoding: 9 8657 9
Width: 672
Flags: HW
VStem: 195 86<-150 506> 390 86<-150 506>
LayerCount: 2
Fore
SplineSet
336 768 m 1
 569 535 l 1
 508 474 l 1
 476 506 l 1
 476 -150 l 1
 390 -150 l 1
 390 592 l 1
 336 646 l 1
 281 591 l 1
 281 -150 l 1
 195 -150 l 1
 195 506 l 1
 163 474 l 1
 103 535 l 1
 336 768 l 1
EndSplineSet
EndChar

StartChar: arrowdblleft
Encoding: 10 8656 10
Width: 1080
Flags: HW
HStem: 160 86<334 990> 354 86<334 990>
LayerCount: 2
Fore
SplineSet
72 300 m 1
 305 533 l 1
 366 472 l 1
 334 440 l 1
 990 441 l 1
 990 355 l 1
 248 354 l 1
 194 300 l 1
 248 246 l 1
 990 246 l 1
 990 160 l 1
 334 160 l 1
 366 128 l 1
 305 67 l 1
 72 300 l 1
EndSplineSet
EndChar

StartChar: arrowdbldown
Encoding: 11 8659 11
Width: 672
Flags: HW
VStem: 195 86<94 750> 390 86<94 750>
LayerCount: 2
Fore
SplineSet
336 -168 m 1
 103 65 l 1
 163 126 l 1
 195 94 l 1
 195 750 l 1
 281 750 l 1
 281 9 l 1
 336 -46 l 1
 390 8 l 1
 390 750 l 1
 476 750 l 1
 476 94 l 1
 508 126 l 1
 569 65 l 1
 336 -168 l 1
EndSplineSet
EndChar

StartChar: uni21D7
Encoding: 12 8663 12
Width: 1164
Flags: HW
HStem: 545 86<583 629 750 827>
VStem: 827 86<301 347 468 545>
LayerCount: 2
Fore
SplineSet
913 631 m 1
 913 301 l 1
 827 301 l 1
 827 347 l 1
 363 -118 l 1
 302 -57 l 1
 827 468 l 1
 827 545 l 1
 750 545 l 1
 225 20 l 1
 164 81 l 1
 629 545 l 1
 583 545 l 1
 583 631 l 1
 913 631 l 1
EndSplineSet
EndChar

StartChar: uni21D6
Encoding: 13 8662 13
Width: 1164
Flags: HW
HStem: 545 86<337 414 536 581>
VStem: 251 86<301 347 468 545>
LayerCount: 2
Fore
SplineSet
251 631 m 1
 581 631 l 1
 581 545 l 1
 536 545 l 1
 1000 81 l 1
 939 20 l 1
 414 545 l 1
 337 545 l 1
 337 468 l 1
 862 -57 l 1
 801 -118 l 1
 337 347 l 1
 337 301 l 1
 251 301 l 1
 251 631 l 1
EndSplineSet
EndChar

StartChar: uni21D9
Encoding: 14 8665 14
Width: 1164
Flags: HW
HStem: -31 86<337 414 536 581> 698 20G<781.043 821>
VStem: 251 86<55 132 253 299>
LayerCount: 2
Fore
SplineSet
251 -31 m 1
 251 299 l 1
 337 299 l 1
 337 253 l 1
 801 718 l 1
 862 657 l 1
 337 132 l 1
 337 55 l 1
 414 55 l 1
 939 580 l 1
 1000 519 l 1
 536 55 l 1
 581 55 l 1
 581 -31 l 1
 251 -31 l 1
EndSplineSet
EndChar

StartChar: uni21D8
Encoding: 15 8664 15
Width: 1164
Flags: HW
HStem: -31 86<583 629 750 827> 698 20G<343 382.957>
VStem: 827 86<55 132 253 299>
LayerCount: 2
Fore
SplineSet
913 -31 m 1
 583 -31 l 1
 583 55 l 1
 629 55 l 1
 164 519 l 1
 225 580 l 1
 750 55 l 1
 827 55 l 1
 827 132 l 1
 302 657 l 1
 363 718 l 1
 827 253 l 1
 827 299 l 1
 913 299 l 1
 913 -31 l 1
EndSplineSet
EndChar

StartChar: arrowboth
Encoding: 16 8596 16
Width: 1080
Flags: HW
HStem: 257 86<237 843>
LayerCount: 2
Fore
SplineSet
72 300 m 1
 259 486 l 1
 319 426 l 1
 237 343 l 1
 843 343 l 1
 761 426 l 1
 821 486 l 1
 1008 300 l 1
 821 114 l 1
 761 174 l 1
 843 257 l 1
 237 257 l 1
 319 174 l 1
 259 114 l 1
 72 300 l 1
EndSplineSet
EndChar

StartChar: arrowupdn
Encoding: 17 8597 17
Width: 578
Flags: HW
VStem: 246 86<-3 603>
LayerCount: 2
Fore
SplineSet
289 -168 m 1
 103 19 l 1
 163 79 l 1
 246 -3 l 1
 246 603 l 1
 163 521 l 1
 103 581 l 1
 289 768 l 1
 475 581 l 1
 415 521 l 1
 332 603 l 1
 332 -3 l 1
 415 79 l 1
 475 19 l 1
 289 -168 l 1
EndSplineSet
EndChar

StartChar: uni2921
Encoding: 18 10529 18
Width: 1098
Flags: HW
HStem: -31 86<365 482> 545 86<616 733>
VStem: 218 86<116 233> 794 86<367 484>
LayerCount: 2
Fore
SplineSet
218 -31 m 1
 218 233 l 1
 304 233 l 1
 304 116 l 1
 733 545 l 1
 616 545 l 1
 616 631 l 1
 880 631 l 1
 880 367 l 1
 794 367 l 1
 794 484 l 1
 365 55 l 1
 482 55 l 1
 482 -31 l 1
 218 -31 l 1
EndSplineSet
EndChar

StartChar: uni2922
Encoding: 19 10530 19
Width: 1098
Flags: HW
HStem: -31 86<616 733> 545 86<365 482>
VStem: 218 86<367 484> 794 86<116 233>
LayerCount: 2
Fore
SplineSet
880 -31 m 1
 616 -31 l 1
 616 55 l 1
 733 55 l 1
 304 484 l 1
 304 367 l 1
 218 367 l 1
 218 631 l 1
 482 631 l 1
 482 545 l 1
 365 545 l 1
 794 116 l 1
 794 233 l 1
 880 233 l 1
 880 -31 l 1
EndSplineSet
EndChar

StartChar: arrowdblboth
Encoding: 20 8660 20
Width: 1230
Flags: HW
HStem: 160 86<334 896> 354 86<334 896>
LayerCount: 2
Fore
SplineSet
982 354 m 1
 248 354 l 1
 194 300 l 1
 248 246 l 1
 982 246 l 1
 1036 300 l 1
 982 354 l 1
72 300 m 1
 305 533 l 1
 366 472 l 1
 334 440 l 1
 896 440 l 1
 864 472 l 1
 925 533 l 1
 1158 300 l 1
 925 67 l 1
 864 128 l 1
 896 160 l 1
 334 160 l 1
 366 128 l 1
 305 67 l 1
 72 300 l 1
EndSplineSet
EndChar

StartChar: uni21D5
Encoding: 21 8661 21
Width: 672
Flags: HW
HStem: 549 21G<143.328 183 488 528>
VStem: 195 86<19 581> 390 86<19 581>
LayerCount: 2
Fore
SplineSet
281 666 m 1
 281 -66 l 1
 336 -121 l 1
 390 -67 l 1
 390 667 l 1
 336 721 l 1
 281 666 l 1
336 -243 m 1
 103 -10 l 1
 163 51 l 1
 195 19 l 1
 195 581 l 1
 163 549 l 1
 103 610 l 1
 336 843 l 1
 569 610 l 1
 508 549 l 1
 476 581 l 1
 476 19 l 1
 508 51 l 1
 569 -10 l 1
 336 -243 l 1
EndSplineSet
EndChar

StartChar: sym030
Encoding: 22 -1 22
Width: 1270
Flags: HW
HStem: -84 86<337 414 536 581> 598 86<689 735 856 933>
VStem: 251 86<2 79 200 246> 933 86<354 400 521 598>
LayerCount: 2
Fore
SplineSet
856 598 m 1
 337 79 l 1
 337 2 l 1
 414 2 l 1
 933 521 l 1
 933 598 l 1
 856 598 l 1
251 -84 m 1
 251 246 l 1
 337 246 l 1
 337 200 l 1
 735 598 l 1
 689 598 l 1
 689 684 l 1
 1019 684 l 1
 1019 354 l 1
 933 354 l 1
 933 400 l 1
 536 2 l 1
 581 2 l 1
 581 -84 l 1
 251 -84 l 1
EndSplineSet
EndChar

StartChar: sym031
Encoding: 23 -1 23
Width: 1270
Flags: HW
HStem: -84 86<689 735 856 933> 598 86<337 414 536 581>
VStem: 251 86<354 400 521 598> 933 86<2 79 200 246>
LayerCount: 2
Fore
SplineSet
337 521 m 1
 856 2 l 1
 933 2 l 1
 933 79 l 1
 414 598 l 1
 337 598 l 1
 337 521 l 1
1019 -84 m 1
 689 -84 l 1
 689 2 l 1
 735 2 l 1
 337 400 l 1
 337 354 l 1
 251 354 l 1
 251 684 l 1
 581 684 l 1
 581 598 l 1
 536 598 l 1
 933 200 l 1
 933 246 l 1
 1019 246 l 1
 1019 -84 l 1
EndSplineSet
EndChar

StartChar: uni21A0
Encoding: 24 8608 24
Width: 1118
Flags: HW
HStem: 257 86<90 646 768 881>
LayerCount: 2
Fore
SplineSet
1045 300 m 1
 859 114 l 1
 798 174 l 1
 881 257 l 1
 768 257 l 1
 625 114 l 1
 564 174 l 1
 646 257 l 1
 90 257 l 1
 90 343 l 1
 646 343 l 1
 564 426 l 1
 625 486 l 1
 768 343 l 1
 881 343 l 1
 798 426 l 1
 859 486 l 1
 1045 300 l 1
EndSplineSet
EndChar

StartChar: uni219F
Encoding: 25 8607 25
Width: 578
Flags: HW
VStem: 246 86<-169 388 509 622>
LayerCount: 2
Fore
SplineSet
289 787 m 1
 475 600 l 1
 415 539 l 1
 332 622 l 1
 332 509 l 1
 475 366 l 1
 415 305 l 1
 332 388 l 1
 332 -169 l 1
 246 -169 l 1
 246 388 l 1
 163 305 l 1
 103 366 l 1
 246 509 l 1
 246 622 l 1
 163 539 l 1
 103 600 l 1
 289 787 l 1
EndSplineSet
EndChar

StartChar: uni219E
Encoding: 26 8606 26
Width: 1118
Flags: HW
HStem: 257 86<237 350 471 1028>
LayerCount: 2
Fore
SplineSet
72 300 m 1
 259 486 l 1
 319 426 l 1
 237 343 l 1
 350 343 l 1
 493 486 l 1
 554 426 l 1
 471 343 l 1
 1028 343 l 1
 1028 257 l 1
 471 257 l 1
 554 174 l 1
 493 114 l 1
 350 257 l 1
 237 257 l 1
 319 174 l 1
 259 114 l 1
 72 300 l 1
EndSplineSet
EndChar

StartChar: uni21A1
Encoding: 27 8609 27
Width: 578
Flags: HW
VStem: 246 86<-22 91 212 769>
LayerCount: 2
Fore
SplineSet
289 -187 m 1
 103 0 l 1
 163 61 l 1
 246 -22 l 1
 246 91 l 1
 103 234 l 1
 163 295 l 1
 246 212 l 1
 246 769 l 1
 332 769 l 1
 332 212 l 1
 415 295 l 1
 475 234 l 1
 332 91 l 1
 332 -22 l 1
 415 61 l 1
 475 0 l 1
 289 -187 l 1
EndSplineSet
EndChar

StartChar: sym033
Encoding: 28 -1 28
Width: 1124
Flags: HW
HStem: 392 86<477 594> 558 86<643 760>
VStem: 655 86<215 332> 820 86<380 497>
LayerCount: 2
Fore
SplineSet
906 644 m 1
 906 380 l 1
 820 380 l 1
 820 497 l 1
 741 418 l 1
 741 215 l 1
 655 215 l 1
 655 332 l 1
 261 -62 l 1
 200 -1 l 1
 594 392 l 1
 477 392 l 1
 477 478 l 1
 680 478 l 1
 760 558 l 1
 643 558 l 1
 643 644 l 1
 906 644 l 1
EndSplineSet
EndChar

StartChar: sym032
Encoding: 29 -1 29
Width: 1124
Flags: HW
HStem: 392 86<531 647> 558 86<365 482>
VStem: 218 86<380 498> 384 86<215 332>
LayerCount: 2
Fore
SplineSet
218 644 m 1
 482 644 l 1
 482 558 l 1
 365 558 l 1
 445 478 l 1
 647 478 l 1
 647 392 l 1
 531 392 l 1
 924 -1 l 1
 863 -62 l 1
 470 332 l 1
 470 215 l 1
 384 215 l 1
 384 418 l 1
 304 498 l 1
 304 380 l 1
 218 380 l 1
 218 644 l 1
EndSplineSet
EndChar

StartChar: sym035
Encoding: 30 -1 30
Width: 1124
Flags: HW
HStem: -44 86<365 482> 122 86<531 647>
VStem: 218 86<102 220> 384 86<268 385>
LayerCount: 2
Fore
SplineSet
218 -44 m 1
 218 220 l 1
 304 220 l 1
 304 102 l 1
 384 182 l 1
 384 385 l 1
 470 385 l 1
 470 268 l 1
 863 662 l 1
 924 601 l 1
 531 208 l 1
 647 208 l 1
 647 122 l 1
 445 122 l 1
 365 42 l 1
 482 42 l 1
 482 -44 l 1
 218 -44 l 1
EndSplineSet
EndChar

StartChar: sym034
Encoding: 31 -1 31
Width: 1124
Flags: HW
HStem: -44 86<643 760> 122 86<477 594>
VStem: 655 86<268 385> 820 86<103 220>
LayerCount: 2
Fore
SplineSet
906 -44 m 1
 643 -44 l 1
 643 42 l 1
 760 42 l 1
 680 122 l 1
 477 122 l 1
 477 208 l 1
 594 208 l 1
 200 601 l 1
 261 662 l 1
 655 268 l 1
 655 385 l 1
 741 385 l 1
 741 182 l 1
 820 103 l 1
 820 220 l 1
 906 220 l 1
 906 -44 l 1
EndSplineSet
EndChar

StartChar: uni21A3
Encoding: 32 8611 32
Width: 930
Flags: HW
HStem: 257 86<307 693>
LayerCount: 2
Fore
SplineSet
858 300 m 1
 671 114 l 1
 611 174 l 1
 693 257 l 1
 307 257 l 1
 163 114 l 1
 103 174 l 1
 228 300 l 1
 103 426 l 1
 163 486 l 1
 307 343 l 1
 693 343 l 1
 611 426 l 1
 671 486 l 1
 858 300 l 1
EndSplineSet
EndChar

StartChar: sym036
Encoding: 33 -1 33
Width: 578
Flags: HW
VStem: 246 86<142 528>
LayerCount: 2
Fore
SplineSet
289 693 m 1
 475 506 l 1
 415 446 l 1
 332 528 l 1
 332 142 l 1
 475 -2 l 1
 415 -62 l 1
 289 63 l 1
 163 -62 l 1
 103 -2 l 1
 246 142 l 1
 246 528 l 1
 163 446 l 1
 103 506 l 1
 289 693 l 1
EndSplineSet
EndChar

StartChar: uni21A2
Encoding: 34 8610 34
Width: 930
Flags: HW
HStem: 257 86<237 623>
LayerCount: 2
Fore
SplineSet
72 300 m 1
 259 486 l 1
 319 426 l 1
 237 343 l 1
 623 343 l 1
 767 486 l 1
 827 426 l 1
 702 300 l 1
 827 174 l 1
 767 114 l 1
 623 257 l 1
 237 257 l 1
 319 174 l 1
 259 114 l 1
 72 300 l 1
EndSplineSet
EndChar

StartChar: sym037
Encoding: 35 -1 35
Width: 578
Flags: HW
VStem: 246 86<72 458>
LayerCount: 2
Fore
SplineSet
289 -93 m 1
 103 94 l 1
 163 154 l 1
 246 72 l 1
 246 458 l 1
 103 602 l 1
 163 662 l 1
 289 537 l 1
 415 662 l 1
 475 602 l 1
 332 458 l 1
 332 72 l 1
 415 154 l 1
 475 94 l 1
 289 -93 l 1
EndSplineSet
EndChar

StartChar: sym039
Encoding: 36 -1 36
Width: 992
Flags: HW
HStem: 133 86<151 328> 492 86<510 627>
VStem: 328 86<-45 133> 688 86<314 431>
LayerCount: 2
Fore
SplineSet
774 578 m 1
 774 314 l 1
 688 314 l 1
 688 431 l 1
 414 157 l 1
 414 -45 l 1
 328 -45 l 1
 328 133 l 1
 151 133 l 1
 151 219 l 1
 354 219 l 1
 627 492 l 1
 510 492 l 1
 510 578 l 1
 774 578 l 1
EndSplineSet
EndChar

StartChar: sym038
Encoding: 37 -1 37
Width: 992
Flags: HW
HStem: 133 86<663 841> 492 86<365 482>
VStem: 218 86<314 431> 577 86<-45 133>
LayerCount: 2
Fore
SplineSet
218 578 m 1
 482 578 l 1
 482 492 l 1
 365 492 l 1
 638 219 l 1
 841 219 l 1
 841 133 l 1
 663 133 l 1
 663 -45 l 1
 577 -45 l 1
 577 158 l 1
 304 431 l 1
 304 314 l 1
 218 314 l 1
 218 578 l 1
EndSplineSet
EndChar

StartChar: sym03B
Encoding: 38 -1 38
Width: 992
Flags: HW
HStem: 22 86<365 482> 381 86<663 841>
VStem: 218 86<169 286> 577 86<467 645>
LayerCount: 2
Fore
SplineSet
218 22 m 1
 218 286 l 1
 304 286 l 1
 304 169 l 1
 577 442 l 1
 577 645 l 1
 663 645 l 1
 663 467 l 1
 841 467 l 1
 841 381 l 1
 638 381 l 1
 365 108 l 1
 482 108 l 1
 482 22 l 1
 218 22 l 1
EndSplineSet
EndChar

StartChar: sym03A
Encoding: 39 -1 39
Width: 992
Flags: HW
HStem: 22 86<510 627> 381 86<151 328>
VStem: 328 86<467 645> 688 86<169 286>
LayerCount: 2
Fore
SplineSet
774 22 m 1
 510 22 l 1
 510 108 l 1
 627 108 l 1
 354 381 l 1
 151 381 l 1
 151 467 l 1
 328 467 l 1
 328 645 l 1
 414 645 l 1
 414 443 l 1
 688 169 l 1
 688 286 l 1
 774 286 l 1
 774 22 l 1
EndSplineSet
EndChar

StartChar: uni21A6
Encoding: 40 8614 40
Width: 930
Flags: HW
HStem: 257 86<176 693>
VStem: 90 86<101 257 343 499>
LayerCount: 2
Fore
SplineSet
858 300 m 1
 671 114 l 1
 611 174 l 1
 693 257 l 1
 176 257 l 1
 176 101 l 1
 90 101 l 1
 90 499 l 1
 176 499 l 1
 176 343 l 1
 693 343 l 1
 611 426 l 1
 671 486 l 1
 858 300 l 1
EndSplineSet
EndChar

StartChar: uni21A5
Encoding: 41 8613 41
Width: 578
Flags: HW
HStem: -75 86<90 246 332 488>
VStem: 246 86<11 528>
LayerCount: 2
Fore
SplineSet
289 693 m 1
 475 506 l 1
 415 446 l 1
 332 528 l 1
 332 11 l 1
 488 11 l 1
 488 -75 l 1
 90 -75 l 1
 90 11 l 1
 246 11 l 1
 246 528 l 1
 163 446 l 1
 103 506 l 1
 289 693 l 1
EndSplineSet
EndChar

StartChar: uni21A4
Encoding: 42 8612 42
Width: 930
Flags: HW
HStem: 257 86<237 754>
VStem: 754 86<101 257 343 499>
LayerCount: 2
Fore
SplineSet
72 300 m 1
 259 486 l 1
 319 426 l 1
 237 343 l 1
 754 343 l 1
 754 499 l 1
 840 499 l 1
 840 101 l 1
 754 101 l 1
 754 257 l 1
 237 257 l 1
 319 174 l 1
 259 114 l 1
 72 300 l 1
EndSplineSet
EndChar

StartChar: uni21A7
Encoding: 43 8615 43
Width: 578
Flags: HW
HStem: 589 86<90 246 332 488>
VStem: 246 86<72 589>
LayerCount: 2
Fore
SplineSet
289 -93 m 1
 103 94 l 1
 163 154 l 1
 246 72 l 1
 246 589 l 1
 90 589 l 1
 90 675 l 1
 488 675 l 1
 488 589 l 1
 332 589 l 1
 332 72 l 1
 415 154 l 1
 475 94 l 1
 289 -93 l 1
EndSplineSet
EndChar

StartChar: uni2907
Encoding: 44 10503 44
Width: 1080
Flags: HW
HStem: 160 86<176 746> 354 87<176 746> 526 20G<90 176>
VStem: 90 86<54 160 246 354 441 546>
LayerCount: 2
Fore
SplineSet
176 354 m 1
 176 246 l 1
 832 246 l 1
 886 300 l 1
 832 354 l 1
 176 354 l 1
1008 300 m 1
 775 67 l 1
 714 128 l 1
 746 160 l 1
 176 160 l 1
 176 54 l 1
 90 54 l 1
 90 546 l 1
 176 546 l 1
 176 441 l 1
 746 440 l 1
 714 472 l 1
 775 533 l 1
 1008 300 l 1
EndSplineSet
EndChar

StartChar: sym03C
Encoding: 45 -1 45
Width: 672
Flags: HW
HStem: -150 86<90 195 281 390 476 582>
VStem: 195 86<-64 506> 390 86<-64 506>
LayerCount: 2
Fore
SplineSet
281 -64 m 1
 390 -64 l 1
 390 592 l 1
 336 646 l 1
 281 591 l 1
 281 -64 l 1
336 768 m 1
 569 535 l 1
 508 474 l 1
 476 506 l 1
 476 -64 l 1
 582 -64 l 1
 582 -150 l 1
 90 -150 l 1
 90 -64 l 1
 195 -64 l 1
 195 506 l 1
 163 474 l 1
 103 535 l 1
 336 768 l 1
EndSplineSet
EndChar

StartChar: uni2906
Encoding: 46 10502 46
Width: 1080
Flags: HW
HStem: 160 86<334 904> 354 86<334 904> 526 20G<904 990>
VStem: 904 86<54 160 246 355 441 546>
LayerCount: 2
Fore
SplineSet
904 246 m 1
 904 355 l 1
 248 354 l 1
 194 300 l 1
 248 246 l 1
 904 246 l 1
72 300 m 1
 305 533 l 1
 366 472 l 1
 334 440 l 1
 904 441 l 1
 904 546 l 1
 990 546 l 1
 990 54 l 1
 904 54 l 1
 904 160 l 1
 334 160 l 1
 366 128 l 1
 305 67 l 1
 72 300 l 1
EndSplineSet
EndChar

StartChar: sym03D
Encoding: 47 -1 47
Width: 672
Flags: HW
HStem: 664 86<90 195 281 390 476 582>
VStem: 195 86<94 664> 390 86<94 664>
LayerCount: 2
Fore
SplineSet
390 664 m 1
 281 664 l 1
 281 9 l 1
 336 -46 l 1
 390 8 l 1
 390 664 l 1
336 -168 m 1
 103 65 l 1
 163 126 l 1
 195 94 l 1
 195 664 l 1
 90 664 l 1
 90 750 l 1
 582 750 l 1
 582 664 l 1
 476 664 l 1
 476 94 l 1
 508 126 l 1
 569 65 l 1
 336 -168 l 1
EndSplineSet
EndChar

StartChar: uni21AA
Encoding: 48 8618 48
Width: 930
Flags: HW
HStem: 257 86<180.702 693> 413 86<180.702 254>
VStem: 90 86<346.75 409.25>
LayerCount: 2
Fore
SplineSet
254 413 m 1
 211 413 l 2
 192 413 176 397 176 378 c 0
 176 359 192 343 211 343 c 2
 693 343 l 1
 611 426 l 1
 671 486 l 1
 858 300 l 1
 671 114 l 1
 611 174 l 1
 693 257 l 1
 211 257 l 2
 144 257 90 311 90 378 c 0
 90 445 144 499 211 499 c 2
 254 499 l 1
 254 413 l 1
EndSplineSet
EndChar

StartChar: sym03E
Encoding: 49 -1 49
Width: 578
Flags: HW
HStem: -75 86<179.75 242.25>
VStem: 90 86<15.7023 89> 246 86<15.7023 528>
LayerCount: 2
Fore
SplineSet
176 89 m 1
 176 46 l 2
 176 27 192 11 211 11 c 0
 230 11 246 27 246 46 c 2
 246 528 l 1
 163 446 l 1
 103 506 l 1
 289 693 l 1
 475 506 l 1
 415 446 l 1
 332 528 l 1
 332 46 l 2
 332 -21 278 -75 211 -75 c 0
 144 -75 90 -21 90 46 c 2
 90 89 l 1
 176 89 l 1
EndSplineSet
EndChar

StartChar: uni21A9.alt
Encoding: 50 -1 50
Width: 930
Flags: HW
HStem: 101 86<676 749.298> 257 86<237 749.298>
VStem: 754 86<190.75 253.25>
LayerCount: 2
Fore
SplineSet
676 187 m 1
 719 187 l 2
 738 187 754 203 754 222 c 0
 754 241 738 257 719 257 c 2
 237 257 l 1
 319 174 l 1
 259 114 l 1
 72 300 l 1
 259 486 l 1
 319 426 l 1
 237 343 l 1
 719 343 l 2
 786 343 840 289 840 222 c 0
 840 155 786 101 719 101 c 2
 676 101 l 1
 676 187 l 1
EndSplineSet
EndChar

StartChar: sym03F.alt
Encoding: 51 -1 51
Width: 578
Flags: HW
HStem: 589 86<335.75 398.25>
VStem: 246 86<72 584.298> 402 86<511 584.298>
LayerCount: 2
Fore
SplineSet
402 511 m 1
 402 554 l 2
 402 573 386 589 367 589 c 0
 348 589 332 573 332 554 c 2
 332 72 l 1
 415 154 l 1
 475 94 l 1
 289 -93 l 1
 103 94 l 1
 163 154 l 1
 246 72 l 1
 246 554 l 2
 246 621 300 675 367 675 c 0
 434 675 488 621 488 554 c 2
 488 511 l 1
 402 511 l 1
EndSplineSet
EndChar

StartChar: uni2924.alt
Encoding: 52 -1 52
Width: 992
Flags: HW
HStem: 55 85<229.82 296.784> 492 86<510 627>
VStem: 140 86<142.919 211.599> 688 86<314 431>
LayerCount: 2
Fore
SplineSet
261 55 m 0
 194 55 140 110 140 176 c 0
 140 207 152 237 176 261 c 2
 206 292 l 1
 267 231 l 1
 236 200 l 2
 230 194 226 185 226 176 c 0
 226 155 243 140 261 140 c 0
 270 140 279 144 286 151 c 2
 627 492 l 1
 510 492 l 1
 510 578 l 1
 774 578 l 1
 774 314 l 1
 688 314 l 1
 688 431 l 1
 347 90 l 2
 323 66 292 55 261 55 c 0
EndSplineSet
EndChar

StartChar: uni2923
Encoding: 53 10531 53
Width: 992
Flags: HW
HStem: -56 86<584.401 653.01> 492 86<365 482>
VStem: 218 86<314 431> 656 85<34.2168 100.423>
LayerCount: 2
Fore
SplineSet
741 66 m 0
 741 -1 686 -56 620 -56 c 0
 589 -56 559 -44 535 -20 c 2
 504 10 l 1
 565 71 l 1
 596 40 l 2
 602 34 611 30 620 30 c 0
 640 30 656 46 656 65 c 0
 656 74 652 83 645 90 c 2
 304 431 l 1
 304 314 l 1
 218 314 l 1
 218 578 l 1
 482 578 l 1
 482 492 l 1
 365 492 l 1
 706 151 l 2
 730 127 741 97 741 66 c 0
EndSplineSet
EndChar

StartChar: uni2926.alt
Encoding: 54 -1 54
Width: 992
Flags: HW
HStem: 22 86<365 482> 460 85<695.577 761.577>
VStem: 218 86<169 286> 766 85<389.335 457.117>
LayerCount: 2
Fore
SplineSet
730 545 m 0
 797 545 851 491 851 424 c 0
 851 393 840 363 816 339 c 2
 786 308 l 1
 725 369 l 1
 755 400 l 2
 762 406 766 415 766 424 c 0
 766 443 750 460 731 460 c 0
 722 460 713 456 706 449 c 2
 365 108 l 1
 482 108 l 1
 482 22 l 1
 218 22 l 1
 218 286 l 1
 304 286 l 1
 304 169 l 1
 645 510 l 2
 669 534 699 545 730 545 c 0
EndSplineSet
EndChar

StartChar: uni2925
Encoding: 55 10533 55
Width: 992
Flags: HW
HStem: 22 86<510 627> 570 86<338.919 407.599>
VStem: 251 85<499.577 567.164> 688 86<169 286>
LayerCount: 2
Fore
SplineSet
251 534 m 0
 251 601 306 656 372 656 c 0
 403 656 433 644 457 620 c 2
 487 590 l 1
 427 529 l 1
 396 560 l 2
 390 566 381 570 372 570 c 0
 351 570 336 553 336 535 c 0
 336 526 340 517 347 510 c 2
 688 169 l 1
 688 286 l 1
 774 286 l 1
 774 22 l 1
 510 22 l 1
 510 108 l 1
 627 108 l 1
 286 449 l 2
 262 473 251 503 251 534 c 0
EndSplineSet
EndChar

StartChar: uni21AA.alt
Encoding: 56 -1 56
Width: 930
Flags: HW
HStem: 101 86<180.702 254> 257 86<180.702 693>
VStem: 90 86<190.75 253.25>
LayerCount: 2
Fore
SplineSet
254 101 m 1
 211 101 l 2
 144 101 90 155 90 222 c 0
 90 289 144 343 211 343 c 2
 693 343 l 1
 611 426 l 1
 671 486 l 1
 858 300 l 1
 671 114 l 1
 611 174 l 1
 693 257 l 1
 211 257 l 2
 192 257 176 241 176 222 c 0
 176 203 192 187 211 187 c 2
 254 187 l 1
 254 101 l 1
EndSplineSet
EndChar

StartChar: sym03E.alt
Encoding: 57 -1 57
Width: 578
Flags: HW
HStem: -75 86<335.75 398.25>
VStem: 246 86<15.7023 528> 402 86<15.7023 89>
LayerCount: 2
Fore
SplineSet
488 89 m 1
 488 46 l 2
 488 -21 434 -75 367 -75 c 0
 300 -75 246 -21 246 46 c 2
 246 528 l 1
 163 446 l 1
 103 506 l 1
 289 693 l 1
 475 506 l 1
 415 446 l 1
 332 528 l 1
 332 46 l 2
 332 27 348 11 367 11 c 0
 386 11 402 27 402 46 c 2
 402 89 l 1
 488 89 l 1
EndSplineSet
EndChar

StartChar: uni21A9
Encoding: 58 8617 58
Width: 930
Flags: HW
HStem: 257 86<237 749.298> 413 86<676 749.298>
VStem: 754 86<346.75 409.25>
LayerCount: 2
Fore
SplineSet
676 499 m 1
 719 499 l 2
 786 499 840 445 840 378 c 0
 840 311 786 257 719 257 c 2
 237 257 l 1
 319 174 l 1
 259 114 l 1
 72 300 l 1
 259 486 l 1
 319 426 l 1
 237 343 l 1
 719 343 l 2
 738 343 754 359 754 378 c 0
 754 397 738 413 719 413 c 2
 676 413 l 1
 676 499 l 1
EndSplineSet
EndChar

StartChar: sym03F
Encoding: 59 -1 59
Width: 578
Flags: HW
HStem: 589 86<179.75 242.25>
VStem: 90 86<511 584.298> 246 86<72 584.298>
LayerCount: 2
Fore
SplineSet
90 511 m 1
 90 554 l 2
 90 621 144 675 211 675 c 0
 278 675 332 621 332 554 c 2
 332 72 l 1
 415 154 l 1
 475 94 l 1
 289 -93 l 1
 103 94 l 1
 163 154 l 1
 246 72 l 1
 246 554 l 2
 246 573 230 589 211 589 c 0
 192 589 176 573 176 554 c 2
 176 511 l 1
 90 511 l 1
EndSplineSet
EndChar

StartChar: uni2924
Encoding: 60 10532 60
Width: 992
Flags: HW
HStem: -56 86<338.919 407.599> 492 86<510 627>
VStem: 251 85<32.8362 100.423> 688 86<314 431>
LayerCount: 2
Fore
SplineSet
336 65 m 0
 336 47 351 30 372 30 c 0
 381 30 390 34 396 40 c 2
 427 71 l 1
 487 10 l 1
 457 -20 l 2
 433 -44 403 -56 372 -56 c 0
 306 -56 251 -1 251 66 c 0
 251 97 262 127 286 151 c 2
 627 492 l 1
 510 492 l 1
 510 578 l 1
 774 578 l 1
 774 314 l 1
 688 314 l 1
 688 431 l 1
 347 90 l 2
 340 83 336 74 336 65 c 0
EndSplineSet
EndChar

StartChar: uni2923.alt
Encoding: 61 -1 61
Width: 992
Flags: HW
HStem: 55 85<695.577 761.577> 492 86<365 482>
VStem: 218 86<314 431> 766 85<142.883 210.665>
LayerCount: 2
Fore
SplineSet
731 140 m 0
 750 140 766 157 766 176 c 0
 766 185 762 194 755 200 c 2
 725 231 l 1
 786 292 l 1
 816 261 l 2
 840 237 851 207 851 176 c 0
 851 109 797 55 730 55 c 0
 699 55 669 66 645 90 c 2
 304 431 l 1
 304 314 l 1
 218 314 l 1
 218 578 l 1
 482 578 l 1
 482 492 l 1
 365 492 l 1
 706 151 l 2
 713 144 722 140 731 140 c 0
EndSplineSet
EndChar

StartChar: uni2926
Encoding: 62 10534 62
Width: 992
Flags: HW
HStem: 22 86<365 482> 570 86<584.401 653.01>
VStem: 218 86<169 286> 656 85<499.577 565.783>
LayerCount: 2
Fore
SplineSet
656 535 m 0
 656 554 640 570 620 570 c 0
 611 570 602 566 596 560 c 2
 565 529 l 1
 504 590 l 1
 535 620 l 2
 559 644 589 656 620 656 c 0
 686 656 741 601 741 534 c 0
 741 503 730 473 706 449 c 2
 365 108 l 1
 482 108 l 1
 482 22 l 1
 218 22 l 1
 218 286 l 1
 304 286 l 1
 304 169 l 1
 645 510 l 2
 652 517 656 526 656 535 c 0
EndSplineSet
EndChar

StartChar: uni2925.alt
Encoding: 63 -1 63
Width: 992
Flags: HW
HStem: 22 86<510 627> 460 85<229.82 296.784>
VStem: 140 86<388.401 457.081> 688 86<169 286>
LayerCount: 2
Fore
SplineSet
261 460 m 0
 243 460 226 445 226 424 c 0
 226 415 230 406 236 400 c 2
 267 369 l 1
 206 308 l 1
 176 339 l 2
 152 363 140 393 140 424 c 0
 140 490 194 545 261 545 c 0
 292 545 323 534 347 510 c 2
 688 169 l 1
 688 286 l 1
 774 286 l 1
 774 22 l 1
 510 22 l 1
 510 108 l 1
 627 108 l 1
 286 449 l 2
 279 456 270 460 261 460 c 0
EndSplineSet
EndChar

StartChar: uni21C0
Encoding: 64 8640 64
Width: 930
Flags: HW
HStem: 257 86<90 693>
LayerCount: 2
Fore
SplineSet
858 300 m 1
 846 257 l 1
 90 257 l 1
 90 343 l 1
 693 343 l 1
 589 447 l 1
 650 508 l 1
 858 300 l 1
EndSplineSet
EndChar

StartChar: uni21BF
Encoding: 65 8639 65
Width: 578
Flags: HW
VStem: 246 86<-75 528>
LayerCount: 2
Fore
SplineSet
289 693 m 1
 332 681 l 1
 332 -75 l 1
 246 -75 l 1
 246 528 l 1
 142 424 l 1
 81 485 l 1
 289 693 l 1
EndSplineSet
EndChar

StartChar: uni21BD
Encoding: 66 8637 66
Width: 930
Flags: HW
HStem: 257 86<237 840>
LayerCount: 2
Fore
SplineSet
72 300 m 1
 84 343 l 1
 840 343 l 1
 840 257 l 1
 237 257 l 1
 341 153 l 1
 280 92 l 1
 72 300 l 1
EndSplineSet
EndChar

StartChar: uni21C2
Encoding: 67 8642 67
Width: 578
Flags: HW
VStem: 246 86<72 675>
LayerCount: 2
Fore
SplineSet
289 -93 m 1
 246 -81 l 1
 246 675 l 1
 332 675 l 1
 332 72 l 1
 436 176 l 1
 497 115 l 1
 289 -93 l 1
EndSplineSet
EndChar

StartChar: sym041
Encoding: 68 -1 68
Width: 992
Flags: HW
HStem: 492 86<480 627>
LayerCount: 2
Fore
SplineSet
774 578 m 1
 796 539 l 1
 761 504 l 1
 261 4 l 1
 200 65 l 1
 627 492 l 1
 480 492 l 1
 480 578 l 1
 774 578 l 1
EndSplineSet
EndChar

StartChar: sym040
Encoding: 69 -1 69
Width: 992
Flags: HW
VStem: 218 86<284 431>
LayerCount: 2
Fore
SplineSet
218 578 m 1
 257 600 l 1
 292 565 l 1
 304 553 l 2
 791 65 l 1
 731 4 l 1
 304 431 l 1
 304 284 l 1
 218 284 l 1
 218 578 l 1
EndSplineSet
EndChar

StartChar: sym043
Encoding: 70 -1 70
Width: 992
Flags: HW
HStem: 22 86<365 512>
LayerCount: 2
Fore
SplineSet
218 22 m 1
 196 61 l 1
 731 596 l 1
 791 535 l 1
 365 108 l 1
 512 108 l 1
 512 22 l 1
 218 22 l 1
EndSplineSet
EndChar

StartChar: sym042
Encoding: 71 -1 71
Width: 992
Flags: HW
HStem: 0 21G<715 770.455>
VStem: 688 86<169 316>
LayerCount: 2
Fore
SplineSet
774 22 m 1
 735 0 l 1
 200 535 l 1
 261 596 l 1
 688 169 l 1
 688 316 l 1
 774 316 l 1
 774 22 l 1
EndSplineSet
EndChar

StartChar: uni21C1
Encoding: 72 8641 72
Width: 930
Flags: HW
HStem: 257 86<90 693>
LayerCount: 2
Fore
SplineSet
858 300 m 1
 650 92 l 1
 589 153 l 1
 693 257 l 1
 90 257 l 1
 90 343 l 1
 846 343 l 1
 858 300 l 1
EndSplineSet
EndChar

StartChar: uni21BE
Encoding: 73 8638 73
Width: 578
Flags: HW
VStem: 246 86<-75 528>
LayerCount: 2
Fore
SplineSet
289 693 m 1
 497 485 l 1
 436 424 l 1
 332 528 l 1
 332 -75 l 1
 246 -75 l 1
 246 681 l 1
 289 693 l 1
EndSplineSet
EndChar

StartChar: uni21BC
Encoding: 74 8636 74
Width: 930
Flags: HW
HStem: 257 86<237 840>
LayerCount: 2
Fore
SplineSet
72 300 m 1
 280 508 l 1
 341 447 l 1
 237 343 l 1
 840 343 l 1
 840 257 l 1
 84 257 l 1
 72 300 l 1
EndSplineSet
EndChar

StartChar: uni21C3
Encoding: 75 8643 75
Width: 578
Flags: HW
VStem: 246 86<72 675>
LayerCount: 2
Fore
SplineSet
289 -93 m 1
 81 115 l 1
 142 176 l 1
 246 72 l 1
 246 675 l 1
 332 675 l 1
 332 -81 l 1
 289 -93 l 1
EndSplineSet
EndChar

StartChar: sym045
Encoding: 76 -1 76
Width: 992
Flags: HW
VStem: 688 86<284 431>
LayerCount: 2
Fore
SplineSet
774 578 m 1
 774 284 l 1
 688 284 l 1
 688 431 l 1
 261 4 l 1
 200 65 l 1
 735 600 l 1
 774 578 l 1
EndSplineSet
EndChar

StartChar: sym044
Encoding: 77 -1 77
Width: 992
Flags: HW
HStem: 492 86<365 512>
LayerCount: 2
Fore
SplineSet
218 578 m 1
 512 578 l 1
 512 492 l 1
 365 492 l 1
 791 65 l 1
 731 4 l 1
 196 539 l 1
 218 578 l 1
EndSplineSet
EndChar

StartChar: sym047
Encoding: 78 -1 78
Width: 992
Flags: HW
HStem: 0 21G<221.545 277>
VStem: 218 86<169 316>
LayerCount: 2
Fore
SplineSet
218 22 m 1
 218 316 l 1
 304 316 l 1
 304 169 l 1
 731 596 l 1
 791 535 l 1
 625 368 458 202 292 35 c 2
 257 0 l 1
 218 22 l 1
EndSplineSet
EndChar

StartChar: sym046
Encoding: 79 -1 79
Width: 992
Flags: HW
HStem: 22 86<480 627>
LayerCount: 2
Fore
SplineSet
774 22 m 1
 480 22 l 1
 480 108 l 1
 627 108 l 1
 200 535 l 1
 261 596 l 1
 761 96 l 1
 796 61 l 1
 774 22 l 1
EndSplineSet
EndChar

StartChar: uni294B
Encoding: 80 10571 80
Width: 930
Flags: HW
HStem: 257 86<237 693>
LayerCount: 2
Fore
SplineSet
72 300 m 1
 84 343 l 1
 693 343 l 1
 589 447 l 1
 650 508 l 1
 858 300 l 1
 846 257 l 1
 237 257 l 1
 341 153 l 1
 280 92 l 1
 72 300 l 1
EndSplineSet
EndChar

StartChar: uni294D
Encoding: 81 10573 81
Width: 578
Flags: HW
VStem: 246 86<72 528>
LayerCount: 2
Fore
SplineSet
289 -93 m 1
 246 -81 l 1
 246 528 l 1
 142 424 l 1
 81 485 l 1
 289 693 l 1
 332 681 l 1
 332 72 l 1
 436 176 l 1
 497 115 l 1
 289 -93 l 1
EndSplineSet
EndChar

StartChar: sym049
Encoding: 82 -1 82
Width: 992
Flags: HW
HStem: 22 86<365 512> 492 86<480 627>
LayerCount: 2
Fore
SplineSet
218 22 m 1
 196 61 l 1
 627 492 l 1
 480 492 l 1
 480 578 l 1
 774 578 l 1
 796 539 l 1
 761 504 l 1
 365 108 l 1
 512 108 l 1
 512 22 l 1
 218 22 l 1
EndSplineSet
EndChar

StartChar: sym048
Encoding: 83 -1 83
Width: 992
Flags: HW
HStem: 0 21G<715 770.455>
VStem: 218 86<284 431> 688 86<169 316>
LayerCount: 2
Fore
SplineSet
774 22 m 1
 735 0 l 1
 304 431 l 1
 304 284 l 1
 218 284 l 1
 218 578 l 1
 257 600 l 1
 688 169 l 1
 688 316 l 1
 774 316 l 1
 774 22 l 1
EndSplineSet
EndChar

StartChar: uni294A
Encoding: 84 10570 84
Width: 930
Flags: HW
HStem: 257 86<237 693>
LayerCount: 2
Fore
SplineSet
72 300 m 1
 280 508 l 1
 341 447 l 1
 237 343 l 1
 846 343 l 1
 858 300 l 1
 650 92 l 1
 589 153 l 1
 693 257 l 1
 84 257 l 1
 72 300 l 1
EndSplineSet
EndChar

StartChar: uni294C
Encoding: 85 10572 85
Width: 578
Flags: HW
VStem: 246 86<72 528>
LayerCount: 2
Fore
SplineSet
289 -93 m 1
 81 115 l 1
 142 176 l 1
 246 72 l 1
 246 681 l 1
 289 693 l 1
 497 485 l 1
 436 424 l 1
 332 528 l 1
 332 -81 l 1
 289 -93 l 1
EndSplineSet
EndChar

StartChar: sym04B
Encoding: 86 -1 86
Width: 992
Flags: HW
HStem: 0 21G<221.545 277>
VStem: 218 86<169 316> 688 86<284 431>
LayerCount: 2
Fore
SplineSet
218 22 m 1
 218 316 l 1
 304 316 l 1
 304 169 l 1
 735 600 l 1
 774 578 l 1
 774 284 l 1
 688 284 l 1
 688 431 l 1
 257 0 l 1
 218 22 l 1
EndSplineSet
EndChar

StartChar: sym04A
Encoding: 87 -1 87
Width: 992
Flags: HW
HStem: 22 86<480 627> 492 86<365 512>
LayerCount: 2
Fore
SplineSet
774 22 m 1
 480 22 l 1
 480 108 l 1
 627 108 l 1
 196 539 l 1
 218 578 l 1
 512 578 l 1
 512 492 l 1
 365 492 l 1
 761 96 l 1
 796 61 l 1
 774 22 l 1
EndSplineSet
EndChar

StartChar: uni21CC
Encoding: 88 8652 88
Width: 930
Flags: HW
HStem: -5 21G<260 300.333> 160 86<237 840> 354 87<90 692>
LayerCount: 2
Fore
SplineSet
858 398 m 1
 846 354 l 1
 90 354 l 1
 90 441 l 1
 692 441 l 1
 589 545 l 1
 650 605 l 1
 858 398 l 1
72 203 m 1
 84 246 l 1
 840 246 l 1
 840 160 l 1
 237 160 l 1
 341 55 l 1
 280 -5 l 1
 72 203 l 1
EndSplineSet
EndChar

StartChar: uni296E
Encoding: 89 10606 89
Width: 773
Flags: HW
VStem: 246 86<-75 528> 441 86<72 675>
LayerCount: 2
Fore
SplineSet
289 693 m 1
 332 681 l 1
 332 -75 l 1
 246 -75 l 1
 246 528 l 1
 142 424 l 1
 81 485 l 1
 289 693 l 1
484 -93 m 1
 441 -81 l 1
 441 675 l 1
 527 675 l 1
 527 72 l 1
 631 176 l 1
 692 115 l 1
 484 -93 l 1
EndSplineSet
EndChar

StartChar: sym04D
Encoding: 90 -1 90
Width: 1130
Flags: HW
HStem: -47 86<502 650> 561 86<480 627>
LayerCount: 2
Fore
SplineSet
774 647 m 1
 796 608 l 1
 761 573 l 1
 261 73 l 1
 200 134 l 1
 627 561 l 1
 480 561 l 1
 480 647 l 1
 774 647 l 1
356 -47 m 1
 334 -8 l 1
 869 527 l 1
 929 466 l 1
 502 39 l 1
 650 39 l 1
 650 -47 l 1
 356 -47 l 1
EndSplineSet
EndChar

StartChar: sym04C
Encoding: 91 -1 91
Width: 1130
Flags: HW
VStem: 218 86<215 362> 826 86<238 385>
LayerCount: 2
Fore
SplineSet
218 509 m 1
 257 531 l 1
 292 496 l 1
 304 484 l 2
 791 -4 l 1
 731 -65 l 1
 304 362 l 1
 304 215 l 1
 218 215 l 1
 218 509 l 1
912 91 m 1
 873 69 l 1
 338 604 l 1
 399 665 l 1
 826 238 l 1
 826 385 l 1
 912 385 l 1
 912 91 l 1
EndSplineSet
EndChar

StartChar: uni21CB
Encoding: 92 8651 92
Width: 930
Flags: HW
HStem: -5 21G<629.667 670> 160 86<90 693> 354 87<238 840>
LayerCount: 2
Fore
SplineSet
858 203 m 1
 650 -5 l 1
 589 55 l 1
 693 160 l 1
 90 160 l 1
 90 246 l 1
 846 246 l 1
 858 203 l 1
72 398 m 1
 280 605 l 1
 341 545 l 1
 238 441 l 1
 840 441 l 1
 840 354 l 1
 84 354 l 1
 72 398 l 1
EndSplineSet
EndChar

StartChar: uni296F
Encoding: 93 10607 93
Width: 773
Flags: HW
VStem: 246 86<72 675> 441 86<-75 528>
LayerCount: 2
Fore
SplineSet
484 693 m 1
 692 485 l 1
 631 424 l 1
 527 528 l 1
 527 -75 l 1
 441 -75 l 1
 441 681 l 1
 484 693 l 1
289 -93 m 1
 81 115 l 1
 142 176 l 1
 246 72 l 1
 246 675 l 1
 332 675 l 1
 332 -81 l 1
 289 -93 l 1
EndSplineSet
EndChar

StartChar: sym04F
Encoding: 94 -1 94
Width: 1130
Flags: HW
VStem: 218 86<238 385> 826 86<215 362>
LayerCount: 2
Fore
SplineSet
912 509 m 1
 912 215 l 1
 826 215 l 1
 826 362 l 1
 399 -65 l 1
 338 -4 l 1
 873 531 l 1
 912 509 l 1
218 91 m 1
 218 385 l 1
 304 385 l 1
 304 238 l 1
 731 665 l 1
 791 604 l 1
 625 437 458 271 292 104 c 2
 257 69 l 1
 218 91 l 1
EndSplineSet
EndChar

StartChar: sym04E
Encoding: 95 -1 95
Width: 1130
Flags: HW
HStem: -47 86<480 627> 561 86<502 650>
LayerCount: 2
Fore
SplineSet
356 647 m 1
 650 647 l 1
 650 561 l 1
 502 561 l 1
 929 134 l 1
 869 73 l 1
 334 608 l 1
 356 647 l 1
774 -47 m 1
 480 -47 l 1
 480 39 l 1
 627 39 l 1
 200 466 l 1
 261 527 l 1
 761 27 l 1
 796 -8 l 1
 774 -47 l 1
EndSplineSet
EndChar

StartChar: uni21E2
Encoding: 96 8674 96
Width: 930
Flags: HW
HStem: 257 86<90 332 498 693>
LayerCount: 2
Fore
SplineSet
90 257 m 1
 90 343 l 1
 332 343 l 1
 332 257 l 1
 90 257 l 1
858 300 m 1
 671 114 l 1
 611 174 l 1
 693 257 l 1
 498 257 l 1
 498 343 l 1
 693 343 l 1
 611 426 l 1
 671 486 l 1
 858 300 l 1
EndSplineSet
EndChar

StartChar: uni21E1
Encoding: 97 8673 97
Width: 578
Flags: HW
VStem: 246 86<-75 167 333 528>
LayerCount: 2
Fore
SplineSet
332 -75 m 1
 246 -75 l 1
 246 167 l 1
 332 167 l 1
 332 -75 l 1
289 693 m 1
 475 506 l 1
 415 446 l 1
 332 528 l 1
 332 333 l 1
 246 333 l 1
 246 528 l 1
 163 446 l 1
 103 506 l 1
 289 693 l 1
EndSplineSet
EndChar

StartChar: uni21E0
Encoding: 98 8672 98
Width: 930
Flags: HW
HStem: 257 86<237 432 598 840>
LayerCount: 2
Fore
SplineSet
840 343 m 1
 840 257 l 1
 598 257 l 1
 598 343 l 1
 840 343 l 1
72 300 m 1
 259 486 l 1
 319 426 l 1
 237 343 l 1
 432 343 l 1
 432 257 l 1
 237 257 l 1
 319 174 l 1
 259 114 l 1
 72 300 l 1
EndSplineSet
EndChar

StartChar: uni21E3
Encoding: 99 8675 99
Width: 578
Flags: HW
VStem: 246 86<72 267 433 675>
LayerCount: 2
Fore
SplineSet
246 675 m 1
 332 675 l 1
 332 433 l 1
 246 433 l 1
 246 675 l 1
289 -93 m 1
 103 94 l 1
 163 154 l 1
 246 72 l 1
 246 267 l 1
 332 267 l 1
 332 72 l 1
 415 154 l 1
 475 94 l 1
 289 -93 l 1
EndSplineSet
EndChar

StartChar: sym051
Encoding: 100 -1 100
Width: 992
Flags: HW
HStem: 492 86<510 627>
VStem: 688 86<314 431>
LayerCount: 2
Fore
SplineSet
261 4 m 1
 200 65 l 1
 372 237 l 1
 432 176 l 1
 261 4 l 1
774 578 m 1
 774 314 l 1
 688 314 l 1
 688 431 l 1
 550 293 l 1
 489 354 l 1
 627 492 l 1
 510 492 l 1
 510 578 l 1
 774 578 l 1
EndSplineSet
EndChar

StartChar: sym050
Encoding: 101 -1 101
Width: 992
Flags: HW
HStem: 492 86<365 482>
VStem: 218 86<314 431>
LayerCount: 2
Fore
SplineSet
791 65 m 1
 731 4 l 1
 559 176 l 1
 620 237 l 1
 791 65 l 1
218 578 m 1
 482 578 l 1
 482 492 l 1
 365 492 l 1
 503 354 l 1
 442 293 l 1
 304 431 l 1
 304 314 l 1
 218 314 l 1
 218 578 l 1
EndSplineSet
EndChar

StartChar: sym053
Encoding: 102 -1 102
Width: 992
Flags: HW
HStem: 22 86<365 482>
VStem: 218 86<169 286>
LayerCount: 2
Fore
SplineSet
731 596 m 1
 791 535 l 1
 620 363 l 1
 559 424 l 1
 731 596 l 1
218 22 m 1
 218 286 l 1
 304 286 l 1
 304 169 l 1
 442 307 l 1
 503 246 l 1
 365 108 l 1
 482 108 l 1
 482 22 l 1
 218 22 l 1
EndSplineSet
EndChar

StartChar: sym052
Encoding: 103 -1 103
Width: 992
Flags: HW
HStem: 22 86<510 627>
VStem: 688 86<169 286>
LayerCount: 2
Fore
SplineSet
200 535 m 1
 261 596 l 1
 432 424 l 1
 372 363 l 1
 200 535 l 1
774 22 m 1
 510 22 l 1
 510 108 l 1
 627 108 l 1
 489 246 l 1
 550 307 l 1
 688 169 l 1
 688 286 l 1
 774 286 l 1
 774 22 l 1
EndSplineSet
EndChar

StartChar: uni22B8
Encoding: 104 8888 104
Width: 930
Flags: HW
HStem: 132 86<617.189 726.494> 257 86<90 516.577> 382 86<617.189 726.494>
VStem: 754 86<245.506 354.494>
CounterMasks: 1 e0
LayerCount: 2
Fore
SplineSet
672 468 m 0
 765 468 840 393 840 300 c 0
 840 207 765 132 672 132 c 0
 596 132 529 185 510 257 c 1
 90 257 l 1
 90 343 l 1
 510 343 l 1
 529 415 596 468 672 468 c 0
672 218 m 0
 717 218 754 255 754 300 c 0
 754 345 717 382 672 382 c 0
 631 382 590 349 590 300 c 0
 590 251 631 218 672 218 c 0
EndSplineSet
EndChar

StartChar: uni2AEF
Encoding: 105 10991 105
Width: 578
Flags: HW
HStem: 589 86<234.903 343.494>
VStem: 121 86<452.535 561.163> 246 86<-75 351.577> 371 86<452.189 561.494>
CounterMasks: 1 70
LayerCount: 2
Fore
SplineSet
289 675 m 0
 382 675 457 600 457 507 c 0
 457 431 404 364 332 345 c 1
 332 -75 l 1
 246 -75 l 1
 246 345 l 1
 174 364 121 431 121 507 c 0
 121 600 196 675 289 675 c 0
289 425 m 0
 338 425 371 466 371 507 c 0
 371 552 334 589 289 589 c 0
 246 589 207 554 207 507 c 0
 207 464 242 425 289 425 c 0
EndSplineSet
EndChar

StartChar: uni27DC
Encoding: 106 10204 106
Width: 930
Flags: HW
HStem: 132 86<203.506 312.811> 257 86<413.423 840> 382 86<203.506 312.811>
VStem: 90 86<245.506 354.494>
CounterMasks: 1 e0
LayerCount: 2
Fore
SplineSet
258 468 m 0
 334 468 401 415 420 343 c 1
 840 343 l 1
 840 257 l 1
 420 257 l 1
 401 185 334 132 258 132 c 0
 165 132 90 207 90 300 c 0
 90 393 165 468 258 468 c 0
258 218 m 0
 299 218 340 251 340 300 c 0
 340 349 299 382 258 382 c 0
 213 382 176 345 176 300 c 0
 176 255 213 218 258 218 c 0
EndSplineSet
EndChar

StartChar: uni2AF0
Encoding: 107 10992 107
Width: 578
Flags: HW
HStem: -75 86<234.903 343.494>
VStem: 121 86<38.8373 147.465> 246 86<248.423 675> 371 86<38.5065 147.811>
CounterMasks: 1 70
LayerCount: 2
Fore
SplineSet
332 255 m 1
 404 236 457 169 457 93 c 0
 457 0 382 -75 289 -75 c 0
 196 -75 121 0 121 93 c 0
 121 169 174 236 246 255 c 1
 246 675 l 1
 332 675 l 1
 332 255 l 1
289 11 m 0
 334 11 371 48 371 93 c 0
 371 134 338 175 289 175 c 0
 242 175 207 136 207 93 c 0
 207 46 246 11 289 11 c 0
EndSplineSet
EndChar

StartChar: sym054
Encoding: 108 -1 108
Width: 930
Flags: HW
HStem: 132 336<592.354 752.175> 257 86<90 516.577>
LayerCount: 2
Fore
SplineSet
672 468 m 0x80
 765 468 840 393 840 300 c 0
 840 207 765 132 672 132 c 0x80
 596 132 529 185 510 257 c 1
 90 257 l 1
 90 343 l 1
 510 343 l 1x40
 529 415 596 468 672 468 c 0x80
EndSplineSet
EndChar

StartChar: sym056
Encoding: 109 -1 109
Width: 578
Flags: HW
VStem: 121 336<427.354 587.175> 246 86<-75 351.577>
LayerCount: 2
Fore
SplineSet
289 675 m 0x80
 382 675 457 600 457 507 c 0x80
 457 431 404 364 332 345 c 1
 332 -75 l 1
 246 -75 l 1
 246 345 l 1x40
 174 364 121 431 121 507 c 0
 121 600 196 675 289 675 c 0x80
EndSplineSet
EndChar

StartChar: sym055
Encoding: 110 -1 110
Width: 930
Flags: HW
HStem: 132 336<177.825 337.646> 257 86<413.423 840>
LayerCount: 2
Fore
SplineSet
258 468 m 0x80
 334 468 401 415 420 343 c 1
 840 343 l 1
 840 257 l 1
 420 257 l 1x40
 401 185 334 132 258 132 c 0
 165 132 90 207 90 300 c 0
 90 393 165 468 258 468 c 0x80
EndSplineSet
EndChar

StartChar: sym057
Encoding: 111 -1 111
Width: 578
Flags: HW
VStem: 121 336<12.8254 172.646> 246 86<248.423 675>
LayerCount: 2
Fore
SplineSet
332 255 m 1x40
 404 236 457 169 457 93 c 0
 457 0 382 -75 289 -75 c 0
 196 -75 121 0 121 93 c 0x80
 121 169 174 236 246 255 c 1
 246 675 l 1
 332 675 l 1
 332 255 l 1x40
EndSplineSet
EndChar

StartChar: uni29DF
Encoding: 112 10719 112
Width: 1230
Flags: HW
HStem: 132 86<203.506 312.811 917.189 1026.49> 257 86<413.423 816.577> 382 86<203.506 312.811 917.189 1026.49>
VStem: 90 86<245.506 354.494> 1054 86<245.506 354.494>
CounterMasks: 1 e0
LayerCount: 2
Fore
SplineSet
972 468 m 0
 1065 468 1140 393 1140 300 c 0
 1140 207 1065 132 972 132 c 0
 896 132 829 185 810 257 c 1
 420 257 l 1
 401 185 334 132 258 132 c 0
 165 132 90 207 90 300 c 0
 90 393 165 468 258 468 c 0
 334 468 401 415 420 343 c 1
 810 343 l 1
 829 415 896 468 972 468 c 0
972 218 m 0
 1017 218 1054 255 1054 300 c 0
 1054 345 1017 382 972 382 c 0
 931 382 890 349 890 300 c 0
 890 251 931 218 972 218 c 0
258 218 m 0
 299 218 340 251 340 300 c 0
 340 349 299 382 258 382 c 0
 213 382 176 345 176 300 c 0
 176 255 213 218 258 218 c 0
EndSplineSet
EndChar

StartChar: sym058
Encoding: 113 -1 113
Width: 1230
Flags: HW
HStem: 132 336<177.825 337.646 892.354 1052.17> 257 86<413.423 816.577>
LayerCount: 2
Fore
SplineSet
972 468 m 0x80
 1065 468 1140 393 1140 300 c 0
 1140 207 1065 132 972 132 c 0x80
 896 132 829 185 810 257 c 1
 420 257 l 1x40
 401 185 334 132 258 132 c 0
 165 132 90 207 90 300 c 0
 90 393 165 468 258 468 c 0x80
 334 468 401 415 420 343 c 1
 810 343 l 1x40
 829 415 896 468 972 468 c 0x80
EndSplineSet
EndChar

StartChar: uni22B7
Encoding: 114 8887 114
Width: 1230
Flags: HW
HStem: 132 336<177.825 337.646> 132 86<917.189 1026.49> 257 86<413.423 816.577> 382 86<917.189 1026.49>
VStem: 1054 86<245.506 354.494>
LayerCount: 2
Fore
SplineSet
972 468 m 0x38
 1065 468 1140 393 1140 300 c 0
 1140 207 1065 132 972 132 c 0
 896 132 829 185 810 257 c 1
 420 257 l 1x78
 401 185 334 132 258 132 c 0
 165 132 90 207 90 300 c 0
 90 393 165 468 258 468 c 0x88
 334 468 401 415 420 343 c 1
 810 343 l 1
 829 415 896 468 972 468 c 0x38
972 218 m 0
 1017 218 1054 255 1054 300 c 0
 1054 345 1017 382 972 382 c 0
 931 382 890 349 890 300 c 0
 890 251 931 218 972 218 c 0
EndSplineSet
EndChar

StartChar: uni22B6
Encoding: 115 8886 115
Width: 1230
Flags: HW
HStem: 132 336<892.354 1052.17> 132 86<203.506 312.811> 257 86<413.423 816.577> 382 86<203.506 312.811>
VStem: 90 86<245.506 354.494>
LayerCount: 2
Fore
SplineSet
972 468 m 0x88
 1065 468 1140 393 1140 300 c 0
 1140 207 1065 132 972 132 c 0x88
 896 132 829 185 810 257 c 1
 420 257 l 1
 401 185 334 132 258 132 c 0
 165 132 90 207 90 300 c 0
 90 393 165 468 258 468 c 0
 334 468 401 415 420 343 c 1
 810 343 l 1x78
 829 415 896 468 972 468 c 0x88
258 218 m 0x58
 299 218 340 251 340 300 c 0
 340 349 299 382 258 382 c 0
 213 382 176 345 176 300 c 0
 176 255 213 218 258 218 c 0x58
EndSplineSet
EndChar

StartChar: sym05A
Encoding: 116 -1 116
Width: 930
Flags: HW
HStem: 54 86<90 365.337> 257 86<90 418 501.281 840> 460 86<90 365.337>
VStem: 418 87<201.82 257 343 398.18>
CounterMasks: 1 e0
LayerCount: 2
Fore
SplineSet
90 140 m 1
 304 140 l 2
 365 140 405 193 418 257 c 1
 90 257 l 1
 90 343 l 1
 418 343 l 1
 405 407 365 460 304 460 c 2
 90 460 l 1
 90 546 l 1
 304 546 l 2
 411 546 489 454 505 343 c 1
 840 343 l 1
 840 257 l 1
 505 257 l 1
 489 146 411 54 304 54 c 2
 90 54 l 1
 90 140 l 1
EndSplineSet
EndChar

StartChar: uni22D4
Encoding: 117 8916 117
Width: 671
Flags: HW
HStem: 253 87<237.82 293 379 433.748>
VStem: 90 86<-75 200.337> 293 86<-75 253 336.281 675> 495 86<-75 200.337>
LayerCount: 2
Fore
SplineSet
495 -75 m 1
 495 139 l 2
 495 200 443 240 379 253 c 1
 379 -75 l 1
 293 -75 l 1
 293 253 l 1
 229 240 176 200 176 139 c 2
 176 -75 l 1
 90 -75 l 1
 90 139 l 2
 90 246 182 324 293 340 c 1
 293 675 l 1
 379 675 l 1
 379 340 l 1
 489 324 581 246 581 139 c 2
 581 -75 l 1
 495 -75 l 1
EndSplineSet
EndChar

StartChar: sym05B
Encoding: 118 -1 118
Width: 930
Flags: HW
HStem: 54 86<564.663 840> 257 86<90 428.719 512 840> 460 86<564.663 840>
VStem: 425 87<201.82 257 343 398.18>
CounterMasks: 1 e0
LayerCount: 2
Fore
SplineSet
840 460 m 1
 626 460 l 2
 565 460 525 407 512 343 c 1
 840 343 l 1
 840 257 l 1
 512 257 l 1
 525 193 565 140 626 140 c 2
 840 140 l 1
 840 54 l 1
 626 54 l 2
 519 54 441 146 425 257 c 1
 90 257 l 1
 90 343 l 1
 425 343 l 1
 441 454 519 546 626 546 c 2
 840 546 l 1
 840 460 l 1
EndSplineSet
EndChar

StartChar: sym059
Encoding: 119 -1 119
Width: 671
Flags: HW
HStem: 260 87<237.82 293 379 433.748>
VStem: 90 86<399.663 675> 293 86<-75 263.719 347 675> 495 86<399.663 675>
LayerCount: 2
Fore
SplineSet
176 675 m 1
 176 461 l 2
 176 400 229 360 293 347 c 1
 293 675 l 1
 379 675 l 1
 379 347 l 1
 443 360 495 400 495 461 c 2
 495 675 l 1
 581 675 l 1
 581 461 l 2
 581 354 489 276 379 260 c 1
 379 -75 l 1
 293 -75 l 1
 293 260 l 1
 182 276 90 354 90 461 c 2
 90 675 l 1
 176 675 l 1
EndSplineSet
EndChar

StartChar: uni21C9
Encoding: 120 8649 120
Width: 930
Flags: HW
HStem: 101 86<90 693> 413 86<90 693>
LayerCount: 2
Fore
SplineSet
858 144 m 1
 671 -42 l 1
 611 18 l 1
 693 101 l 1
 90 101 l 1
 90 187 l 1
 693 187 l 1
 611 270 l 1
 641 300 l 1
 611 330 l 1
 693 413 l 1
 90 413 l 1
 90 499 l 1
 693 499 l 1
 611 582 l 1
 671 642 l 1
 858 456 l 1
 701 300 l 1
 858 144 l 1
EndSplineSet
EndChar

StartChar: uni21C8
Encoding: 121 8648 121
Width: 890
Flags: HW
VStem: 246 86<-75 528> 558 86<-75 528>
LayerCount: 2
Fore
SplineSet
601 693 m 1
 787 506 l 1
 727 446 l 1
 644 528 l 1
 644 -75 l 1
 558 -75 l 1
 558 528 l 1
 475 446 l 1
 445 476 l 1
 415 446 l 1
 332 528 l 1
 332 -75 l 1
 246 -75 l 1
 246 528 l 1
 163 446 l 1
 103 506 l 1
 289 693 l 1
 445 536 l 1
 601 693 l 1
EndSplineSet
EndChar

StartChar: uni21C7
Encoding: 122 8647 122
Width: 930
Flags: HW
HStem: 101 86<237 840> 413 86<237 840>
LayerCount: 2
Fore
SplineSet
72 456 m 1
 259 642 l 1
 319 582 l 1
 237 499 l 1
 840 499 l 1
 840 413 l 1
 237 413 l 1
 319 330 l 1
 289 300 l 1
 319 270 l 1
 237 187 l 1
 840 187 l 1
 840 101 l 1
 237 101 l 1
 319 18 l 1
 259 -42 l 1
 72 144 l 1
 229 300 l 1
 72 456 l 1
EndSplineSet
EndChar

StartChar: uni21CA
Encoding: 123 8650 123
Width: 890
Flags: HW
VStem: 246 86<72 675> 558 86<72 675>
LayerCount: 2
Fore
SplineSet
289 -93 m 1
 103 94 l 1
 163 154 l 1
 246 72 l 1
 246 675 l 1
 332 675 l 1
 332 72 l 1
 415 154 l 1
 445 124 l 1
 475 154 l 1
 558 72 l 1
 558 675 l 1
 644 675 l 1
 644 72 l 1
 727 154 l 1
 787 94 l 1
 601 -93 l 1
 445 64 l 1
 289 -93 l 1
EndSplineSet
EndChar

StartChar: sym05D
Encoding: 124 -1 124
Width: 1212
Flags: HW
HStem: 381 86<774 847> 602 86<510 627>
VStem: 688 86<467 542> 908 86<204 320>
LayerCount: 2
Fore
SplineSet
994 467 m 1
 994 204 l 1
 908 204 l 1
 908 320 l 1
 482 -106 l 1
 421 -45 l 1
 847 381 l 1
 731 381 l 1
 731 424 l 1
 688 424 l 1
 688 542 l 1
 261 115 l 1
 200 176 l 1
 627 602 l 1
 510 602 l 1
 510 688 l 1
 774 688 l 1
 774 467 l 1
 994 467 l 1
EndSplineSet
EndChar

StartChar: sym05C
Encoding: 125 -1 125
Width: 1212
Flags: HW
HStem: 381 86<366 439> 602 86<585 702>
VStem: 218 86<204 321> 439 86<467 541>
LayerCount: 2
Fore
SplineSet
439 688 m 1
 702 688 l 1
 702 602 l 1
 585 602 l 1
 1012 176 l 1
 951 115 l 1
 525 541 l 1
 525 424 l 1
 482 424 l 1
 482 381 l 1
 366 381 l 1
 791 -45 l 1
 731 -106 l 1
 304 321 l 1
 304 204 l 1
 218 204 l 1
 218 467 l 1
 439 467 l 1
 439 688 l 1
EndSplineSet
EndChar

StartChar: sym05F
Encoding: 126 -1 126
Width: 1212
Flags: HW
HStem: -88 86<585 702> 133 86<366 439> 686 20G<711 750.672>
VStem: 218 86<279 396> 439 86<59 133>
LayerCount: 2
Fore
SplineSet
218 133 m 1
 218 396 l 1
 304 396 l 1
 304 279 l 1
 731 706 l 1
 791 645 l 1
 366 219 l 1
 482 219 l 1
 482 176 l 1
 525 176 l 1
 525 59 l 1
 951 485 l 1
 1012 424 l 1
 585 -2 l 1
 702 -2 l 1
 702 -88 l 1
 439 -88 l 1
 439 133 l 1
 218 133 l 1
EndSplineSet
EndChar

StartChar: sym05E
Encoding: 127 -1 127
Width: 1212
Flags: HW
HStem: -88 86<510 627> 133 86<774 847> 686 20G<462 502>
VStem: 688 86<58 133> 908 86<280 396>
LayerCount: 2
Fore
SplineSet
774 -88 m 1
 510 -88 l 1
 510 -2 l 1
 627 -2 l 1
 200 424 l 1
 261 485 l 1
 688 58 l 1
 688 176 l 1
 731 176 l 1
 731 219 l 1
 847 219 l 1
 421 645 l 1
 482 706 l 1
 908 280 l 1
 908 396 l 1
 994 396 l 1
 994 133 l 1
 774 133 l 1
 774 -88 l 1
EndSplineSet
EndChar

StartChar: uni21C4
Encoding: 128 8644 128
Width: 930
Flags: HW
HStem: 101 86<237 840> 413 86<90 693>
LayerCount: 2
Fore
SplineSet
858 456 m 1
 671 270 l 1
 611 330 l 1
 693 413 l 1
 90 413 l 1
 90 499 l 1
 693 499 l 1
 611 582 l 1
 671 642 l 1
 858 456 l 1
72 144 m 1
 259 330 l 1
 319 270 l 1
 237 187 l 1
 840 187 l 1
 840 101 l 1
 237 101 l 1
 319 18 l 1
 259 -42 l 1
 72 144 l 1
EndSplineSet
EndChar

StartChar: uni21C5
Encoding: 129 8645 129
Width: 890
Flags: HW
VStem: 246 86<-75 528> 558 86<72 675>
LayerCount: 2
Fore
SplineSet
289 693 m 1
 475 506 l 1
 415 446 l 1
 332 528 l 1
 332 -75 l 1
 246 -75 l 1
 246 528 l 1
 163 446 l 1
 103 506 l 1
 289 693 l 1
601 -93 m 1
 415 94 l 1
 475 154 l 1
 558 72 l 1
 558 675 l 1
 644 675 l 1
 644 72 l 1
 727 154 l 1
 787 94 l 1
 601 -93 l 1
EndSplineSet
EndChar

StartChar: sym061
Encoding: 130 -1 130
Width: 1212
Flags: HW
HStem: -88 86<585 702> 602 86<510 627>
VStem: 439 86<59 176> 688 86<424 542>
LayerCount: 2
Fore
SplineSet
774 688 m 1
 774 424 l 1
 688 424 l 1
 688 542 l 1
 261 115 l 1
 200 176 l 1
 627 602 l 1
 510 602 l 1
 510 688 l 1
 774 688 l 1
439 -88 m 1
 439 176 l 1
 525 176 l 1
 525 59 l 1
 951 485 l 1
 1012 424 l 1
 585 -2 l 1
 702 -2 l 1
 702 -88 l 1
 439 -88 l 1
EndSplineSet
EndChar

StartChar: sym060
Encoding: 131 -1 131
Width: 1212
Flags: HW
HStem: 133 86<731 847> 381 86<366 482> 686 20G<462 502>
VStem: 218 86<204 321> 908 86<280 396>
LayerCount: 2
Fore
SplineSet
218 467 m 1
 482 467 l 1
 482 381 l 1
 366 381 l 1
 791 -45 l 1
 731 -106 l 1
 304 321 l 1
 304 204 l 1
 218 204 l 1
 218 467 l 1
994 133 m 1
 731 133 l 1
 731 219 l 1
 847 219 l 1
 421 645 l 1
 482 706 l 1
 908 280 l 1
 908 396 l 1
 994 396 l 1
 994 133 l 1
EndSplineSet
EndChar

StartChar: uni21C6
Encoding: 132 8646 132
Width: 930
Flags: HW
HStem: 101 86<90 693> 413 86<237 840>
LayerCount: 2
Fore
SplineSet
858 144 m 1
 671 -42 l 1
 611 18 l 1
 693 101 l 1
 90 101 l 1
 90 187 l 1
 693 187 l 1
 611 270 l 1
 671 330 l 1
 858 144 l 1
72 456 m 1
 259 642 l 1
 319 582 l 1
 237 499 l 1
 840 499 l 1
 840 413 l 1
 237 413 l 1
 319 330 l 1
 259 270 l 1
 72 456 l 1
EndSplineSet
EndChar

StartChar: uni21F5
Encoding: 133 8693 133
Width: 890
Flags: HW
VStem: 246 86<72 675> 558 86<-75 528>
LayerCount: 2
Fore
SplineSet
601 693 m 1
 787 506 l 1
 727 446 l 1
 644 528 l 1
 644 -75 l 1
 558 -75 l 1
 558 528 l 1
 475 446 l 1
 415 506 l 1
 601 693 l 1
289 -93 m 1
 103 94 l 1
 163 154 l 1
 246 72 l 1
 246 675 l 1
 332 675 l 1
 332 72 l 1
 415 154 l 1
 475 94 l 1
 289 -93 l 1
EndSplineSet
EndChar

StartChar: sym063
Encoding: 134 -1 134
Width: 1212
Flags: HW
HStem: 133 86<366 482> 381 86<731 847> 686 20G<711 750.672>
VStem: 218 86<279 396> 908 86<204 320>
LayerCount: 2
Fore
SplineSet
994 467 m 1
 994 204 l 1
 908 204 l 1
 908 320 l 1
 482 -106 l 1
 421 -45 l 1
 847 381 l 1
 731 381 l 1
 731 467 l 1
 994 467 l 1
218 133 m 1
 218 396 l 1
 304 396 l 1
 304 279 l 1
 731 706 l 1
 791 645 l 1
 366 219 l 1
 482 219 l 1
 482 133 l 1
 218 133 l 1
EndSplineSet
EndChar

StartChar: sym062
Encoding: 135 -1 135
Width: 1212
Flags: HW
HStem: -88 86<510 627> 602 86<585 702>
VStem: 439 86<424 541> 688 86<58 176>
LayerCount: 2
Fore
SplineSet
439 688 m 1
 702 688 l 1
 702 602 l 1
 585 602 l 1
 1012 176 l 1
 951 115 l 1
 525 541 l 1
 525 424 l 1
 439 424 l 1
 439 688 l 1
774 -88 m 1
 510 -88 l 1
 510 -2 l 1
 627 -2 l 1
 200 424 l 1
 261 485 l 1
 688 58 l 1
 688 176 l 1
 774 176 l 1
 774 -88 l 1
EndSplineSet
EndChar

StartChar: uni219D
Encoding: 136 8605 136
Width: 930
Flags: HW
HStem: 179 86<457.284 539.602> 257 86<614.266 693> 335 86<227.933 325.224>
LayerCount: 2
Fore
SplineSet
858 300 m 1x40
 671 114 l 1
 611 174 l 1
 693 257 l 1
 649 257 l 2x40
 645 257 617 237 600 226 c 0
 570 204 539 179 502 179 c 0
 440 179 392 224 356 275 c 0
 336 304 315 335 281 335 c 0
 227 335 199 280 168 236 c 1
 98 286 l 1
 144 352 200 421 281 421 c 0
 342 421 391 376 426 325 c 0
 446 296 468 265 502 265 c 0xa0
 522 265 535 285 551 296 c 0
 582 318 618 343 649 343 c 2
 693 343 l 1
 611 426 l 1
 671 486 l 1
 858 300 l 1x40
EndSplineSet
EndChar

StartChar: sym064.alt
Encoding: 137 -1 137
Width: 578
Flags: HW
VStem: 168 86<62.9328 160.224> 246 86<449.266 528> 324 86<292.284 374.602>
LayerCount: 2
Fore
SplineSet
289 693 m 1x40
 475 506 l 1
 415 446 l 1
 332 528 l 1
 332 484 l 2x40
 332 480 352 452 363 435 c 0
 385 405 410 374 410 337 c 0
 410 275 365 227 314 191 c 0
 285 171 254 150 254 116 c 0
 254 62 309 34 353 3 c 1
 303 -67 l 1
 237 -21 168 35 168 116 c 0
 168 177 213 226 264 261 c 0
 293 281 324 303 324 337 c 0xa0
 324 357 304 370 293 386 c 0
 271 417 246 453 246 484 c 2
 246 528 l 1
 163 446 l 1
 103 506 l 1
 289 693 l 1x40
EndSplineSet
EndChar

StartChar: uni219C.alt
Encoding: 138 -1 138
Width: 930
Flags: HW
HStem: 179 86<604.776 702.067> 257 86<237 315.734> 335 86<390.398 472.716>
LayerCount: 2
Fore
SplineSet
72 300 m 1x40
 259 486 l 1
 319 426 l 1
 237 343 l 1
 281 343 l 2x40
 285 343 313 363 330 374 c 0
 360 396 391 421 428 421 c 0
 490 421 538 376 574 325 c 0
 594 296 615 265 649 265 c 0
 703 265 731 320 762 364 c 1
 832 314 l 1
 786 248 730 179 649 179 c 0
 588 179 539 224 504 275 c 0
 484 304 462 335 428 335 c 0xa0
 408 335 395 315 379 304 c 0
 348 282 312 257 281 257 c 2
 237 257 l 1
 319 174 l 1
 259 114 l 1
 72 300 l 1x40
EndSplineSet
EndChar

StartChar: sym065
Encoding: 139 -1 139
Width: 578
Flags: HW
VStem: 168 86<225.398 307.716> 246 86<72 150.734> 324 86<439.776 537.067>
LayerCount: 2
Fore
SplineSet
289 -93 m 1x40
 103 94 l 1
 163 154 l 1
 246 72 l 1
 246 116 l 2x40
 246 120 226 148 215 165 c 0
 193 195 168 226 168 263 c 0
 168 325 213 373 264 409 c 0
 293 429 324 450 324 484 c 0
 324 538 269 566 225 597 c 1
 275 667 l 1
 341 621 410 565 410 484 c 0
 410 423 365 374 314 339 c 0
 285 319 254 297 254 263 c 0xa0
 254 243 274 230 285 214 c 0
 307 183 332 147 332 116 c 2
 332 72 l 1
 415 154 l 1
 475 94 l 1
 289 -93 l 1x40
EndSplineSet
EndChar

StartChar: uni219D.alt
Encoding: 140 -1 140
Width: 930
Flags: HW
HStem: 179 86<227.933 325.224> 257 86<614.266 693> 335 86<457.284 539.602>
LayerCount: 2
Fore
SplineSet
858 300 m 1x40
 671 114 l 1
 611 174 l 1
 693 257 l 1
 649 257 l 2x40
 618 257 582 282 551 304 c 0
 535 315 522 335 502 335 c 0
 468 335 446 304 426 275 c 0
 391 224 342 179 281 179 c 0
 200 179 144 248 98 314 c 1
 168 364 l 1
 199 320 227 265 281 265 c 0
 315 265 336 296 356 325 c 0
 392 376 440 421 502 421 c 0xa0
 539 421 570 396 600 374 c 0
 617 363 645 343 649 343 c 2
 693 343 l 1
 611 426 l 1
 671 486 l 1
 858 300 l 1x40
EndSplineSet
EndChar

StartChar: sym064
Encoding: 141 -1 141
Width: 578
Flags: HW
VStem: 168 86<292.284 374.602> 246 86<449.266 528> 324 86<62.9328 160.224>
LayerCount: 2
Fore
SplineSet
289 693 m 1x40
 475 506 l 1
 415 446 l 1
 332 528 l 1
 332 484 l 2x40
 332 453 307 417 285 386 c 0
 274 370 254 357 254 337 c 0
 254 303 285 281 314 261 c 0
 365 226 410 177 410 116 c 0
 410 35 341 -21 275 -67 c 1
 225 3 l 1
 269 34 324 62 324 116 c 0
 324 150 293 171 264 191 c 0
 213 227 168 275 168 337 c 0xa0
 168 374 193 405 215 435 c 0
 226 452 246 480 246 484 c 2
 246 528 l 1
 163 446 l 1
 103 506 l 1
 289 693 l 1x40
EndSplineSet
EndChar

StartChar: uni219C
Encoding: 142 8604 142
Width: 930
Flags: HW
HStem: 179 86<390.398 472.716> 257 86<237 315.734> 335 86<604.776 702.067>
LayerCount: 2
Fore
SplineSet
72 300 m 1x40
 259 486 l 1
 319 426 l 1
 237 343 l 1
 281 343 l 2x40
 312 343 348 318 379 296 c 0
 395 285 408 265 428 265 c 0
 462 265 484 296 504 325 c 0
 539 376 588 421 649 421 c 0
 730 421 786 352 832 286 c 1
 762 236 l 1
 731 280 703 335 649 335 c 0
 615 335 594 304 574 275 c 0
 538 224 490 179 428 179 c 0xa0
 391 179 360 204 330 226 c 0
 313 237 285 257 281 257 c 2
 237 257 l 1
 319 174 l 1
 259 114 l 1
 72 300 l 1x40
EndSplineSet
EndChar

StartChar: sym065.alt
Encoding: 143 -1 143
Width: 578
Flags: HW
VStem: 168 86<439.776 537.067> 246 86<72 150.734> 324 86<225.398 307.716>
LayerCount: 2
Fore
SplineSet
289 -93 m 1x40
 103 94 l 1
 163 154 l 1
 246 72 l 1
 246 116 l 2x40
 246 147 271 183 293 214 c 0
 304 230 324 243 324 263 c 0
 324 297 293 319 264 339 c 0
 213 374 168 423 168 484 c 0
 168 565 237 621 303 667 c 1
 353 597 l 1
 309 566 254 538 254 484 c 0
 254 450 285 429 314 409 c 0
 365 373 410 325 410 263 c 0xa0
 410 226 385 195 363 165 c 0
 352 148 332 120 332 116 c 2
 332 72 l 1
 415 154 l 1
 475 94 l 1
 289 -93 l 1x40
EndSplineSet
EndChar

StartChar: uni21AD
Encoding: 144 8621 144
Width: 1080
Flags: HW
HStem: 179 86<606.284 686.288> 257 86<237 318.406 762.493 843> 335 86<391.375 473.716>
LayerCount: 2
Fore
SplineSet
651 265 m 0xa0
 669 265 741 343 799 343 c 2
 843 343 l 1
 761 426 l 1
 821 486 l 1
 1008 300 l 1
 821 114 l 1
 761 174 l 1
 843 257 l 1
 799 257 l 2x40
 779 257 766 237 750 226 c 0
 719 204 683 179 651 179 c 0
 589 179 541 224 505 275 c 0
 485 304 463 335 429 335 c 0xa0
 409 335 396 315 380 304 c 0
 349 282 318 257 281 257 c 2
 237 257 l 1
 319 174 l 1
 259 114 l 1
 72 300 l 1
 259 486 l 1
 319 426 l 1
 237 343 l 1
 281 343 l 2x40
 301 343 314 363 330 374 c 0
 361 396 392 421 429 421 c 0
 491 421 539 376 575 325 c 0
 595 296 617 265 651 265 c 0xa0
EndSplineSet
EndChar

StartChar: sym066.alt
Encoding: 145 -1 145
Width: 578
Flags: HW
VStem: 168 86<151.375 233.716> 246 86<-3 78.4062 522.493 603> 324 86<366.284 446.288>
LayerCount: 2
Fore
SplineSet
324 411 m 0xa0
 324 429 246 501 246 559 c 2
 246 603 l 1
 163 521 l 1
 103 581 l 1
 289 768 l 1
 475 581 l 1
 415 521 l 1
 332 603 l 1
 332 559 l 2x40
 332 539 352 526 363 510 c 0
 385 479 410 443 410 411 c 0
 410 349 365 301 314 265 c 0
 285 245 254 223 254 189 c 0xa0
 254 169 274 156 285 140 c 0
 307 109 332 78 332 41 c 2
 332 -3 l 1
 415 79 l 1
 475 19 l 1
 289 -168 l 1
 103 19 l 1
 163 79 l 1
 246 -3 l 1
 246 41 l 2x40
 246 61 226 74 215 90 c 0
 193 121 168 152 168 189 c 0
 168 251 213 299 264 335 c 0
 293 355 324 377 324 411 c 0xa0
EndSplineSet
EndChar

StartChar: uni21AD.alt
Encoding: 146 -1 146
Width: 1080
Flags: HW
HStem: 179 86<391.375 473.716> 257 86<237 318.406 762.493 843> 335 86<606.284 686.288>
LayerCount: 2
Fore
SplineSet
799 257 m 2x40
 741 257 669 335 651 335 c 0
 617 335 595 304 575 275 c 0
 539 224 491 179 429 179 c 0xa0
 392 179 361 204 330 226 c 0
 314 237 301 257 281 257 c 2
 237 257 l 1
 319 174 l 1
 259 114 l 1
 72 300 l 1
 259 486 l 1
 319 426 l 1
 237 343 l 1
 281 343 l 2x40
 318 343 349 318 380 296 c 0
 396 285 409 265 429 265 c 0
 463 265 485 296 505 325 c 0
 541 376 589 421 651 421 c 0xa0
 683 421 719 396 750 374 c 0
 766 363 779 343 799 343 c 2
 843 343 l 1
 761 426 l 1
 821 486 l 1
 1008 300 l 1
 821 114 l 1
 761 174 l 1
 843 257 l 1
 799 257 l 2x40
EndSplineSet
EndChar

StartChar: sym066
Encoding: 147 -1 147
Width: 578
Flags: HW
VStem: 168 86<366.284 446.288> 246 86<-3 78.4062 522.493 603> 324 86<151.375 233.716>
LayerCount: 2
Fore
SplineSet
332 559 m 2x40
 332 501 254 429 254 411 c 0
 254 377 285 355 314 335 c 0
 365 299 410 251 410 189 c 0xa0
 410 152 385 121 363 90 c 0
 352 74 332 61 332 41 c 2
 332 -3 l 1
 415 79 l 1
 475 19 l 1
 289 -168 l 1
 103 19 l 1
 163 79 l 1
 246 -3 l 1
 246 41 l 2x40
 246 78 271 109 293 140 c 0
 304 156 324 169 324 189 c 0
 324 223 293 245 264 265 c 0
 213 301 168 349 168 411 c 0xa0
 168 443 193 479 215 510 c 0
 226 526 246 539 246 559 c 2
 246 603 l 1
 163 521 l 1
 103 581 l 1
 289 768 l 1
 475 581 l 1
 415 521 l 1
 332 603 l 1
 332 559 l 2x40
EndSplineSet
EndChar

StartChar: sym069
Encoding: 148 -1 148
Width: 930
Flags: HW
HStem: 335 86<310.539 522.434>
LayerCount: 2
Fore
SplineSet
416 421 m 0
 490 421 615 398 731 264 c 1
 740 368 l 1
 826 360 l 1
 803 97 l 1
 540 120 l 1
 548 206 l 1
 677 195 l 1
 628 255 541 335 417 335 c 0
 317 335 226 280 168 197 c 1
 98 247 l 1
 172 353 288 421 416 421 c 0
EndSplineSet
EndChar

StartChar: sym068
Encoding: 149 -1 149
Width: 578
Flags: HW
VStem: 168 86<145.539 357.434>
LayerCount: 2
Fore
SplineSet
168 251 m 0
 168 325 191 450 325 566 c 1
 221 575 l 1
 229 661 l 1
 492 638 l 1
 469 375 l 1
 383 383 l 1
 394 512 l 1
 334 463 254 376 254 252 c 0
 254 152 309 61 392 3 c 1
 342 -67 l 1
 236 7 168 123 168 251 c 0
EndSplineSet
EndChar

StartChar: sym067
Encoding: 150 -1 150
Width: 930
Flags: HW
HStem: 179 86<407.566 619.461>
LayerCount: 2
Fore
SplineSet
514 179 m 0
 440 179 315 202 199 336 c 1
 190 232 l 1
 104 240 l 1
 127 503 l 1
 390 480 l 1
 382 394 l 1
 253 405 l 1
 302 345 389 265 513 265 c 0
 613 265 704 320 762 403 c 1
 832 353 l 1
 758 247 642 179 514 179 c 0
EndSplineSet
EndChar

StartChar: uni2938
Encoding: 151 10552 151
Width: 578
Flags: HW
VStem: 324 86<242.589 454.461>
LayerCount: 2
Fore
SplineSet
410 349 m 0
 410 275 387 151 253 34 c 1
 357 25 l 1
 349 -61 l 1
 86 -38 l 1
 109 225 l 1
 195 217 l 1
 184 87 l 1
 244 136 324 224 324 348 c 0
 324 448 269 539 186 597 c 1
 236 667 l 1
 342 593 410 477 410 349 c 0
EndSplineSet
EndChar

StartChar: sym06C
Encoding: 152 -1 152
Width: 992
Flags: HW
HStem: 378 86<541.303 709>
VStem: 267 86<16.2694 193.076>
LayerCount: 2
Fore
SplineSet
267 79 m 0
 267 289 419 464 673 464 c 0
 685 464 697 464 709 463 c 1
 643 542 l 1
 709 598 l 1
 878 396 l 1
 676 226 l 1
 621 292 l 1
 720 375 l 1
 703 377 686 378 669 378 c 0
 466 378 353 239 353 80 c 0
 353 59 355 38 359 18 c 1
 274 3 l 1
 270 28 267 54 267 79 c 0
EndSplineSet
EndChar

StartChar: sym06B
Encoding: 153 -1 153
Width: 992
Flags: HW
HStem: 71 86<603.243 779.731>
VStem: 332 85<344.661 513>
LayerCount: 2
Fore
SplineSet
717 71 m 0
 508 71 332 222 332 476 c 0
 332 489 332 500 333 513 c 1
 254 447 l 1
 198 513 l 1
 400 682 l 1
 570 480 l 1
 504 425 l 1
 420 525 l 1
 418 508 417 491 417 474 c 0
 417 268 558 157 716 157 c 0
 737 157 758 159 778 163 c 1
 793 78 l 1
 768 74 742 71 717 71 c 0
EndSplineSet
EndChar

StartChar: uni2936
Encoding: 154 10550 154
Width: 992
Flags: HW
HStem: 136 86<283 451.646>
VStem: 639 86<408.146 583.757>
LayerCount: 2
Fore
SplineSet
725 522 m 0
 725 315 577 136 319 136 c 0
 307 136 295 136 283 137 c 1
 349 58 l 1
 283 2 l 1
 114 204 l 1
 316 374 l 1
 371 308 l 1
 271 225 l 1
 288 223 306 222 323 222 c 0
 527 222 639 362 639 520 c 0
 639 541 637 562 633 582 c 1
 718 597 l 1
 722 572 725 547 725 522 c 0
EndSplineSet
EndChar

StartChar: uni2935
Encoding: 155 10549 155
Width: 992
Flags: HW
HStem: 443 86<211.201 389.05>
VStem: 574 86<86 255.234>
LayerCount: 2
Fore
SplineSet
275 529 m 0
 486 529 660 377 660 125 c 0
 660 112 659 99 658 86 c 1
 738 153 l 1
 794 87 l 1
 592 -82 l 1
 422 120 l 1
 488 175 l 1
 571 76 l 1
 573 93 574 110 574 127 c 0
 574 330 435 443 275 443 c 0
 254 443 234 441 213 437 c 1
 199 522 l 1
 224 526 250 529 275 529 c 0
EndSplineSet
EndChar

StartChar: uni293B
Encoding: 156 10555 156
Width: 930
Flags: HW
HStem: 179 86<310.539 521.645>
LayerCount: 2
Fore
SplineSet
731 336 m 1
 674 271 567 179 416 179 c 0
 288 179 172 247 98 353 c 1
 168 403 l 1
 226 320 317 265 417 265 c 0
 480 265 582 287 677 405 c 1
 548 394 l 1
 540 480 l 1
 803 503 l 1
 826 240 l 1
 740 232 l 1
 731 336 l 1
EndSplineSet
EndChar

StartChar: sym06A
Encoding: 157 -1 157
Width: 578
Flags: HW
VStem: 324 86<145.539 356.691>
LayerCount: 2
Fore
SplineSet
253 566 m 1
 318 509 410 402 410 251 c 0
 410 123 342 7 236 -67 c 1
 186 3 l 1
 269 61 324 152 324 252 c 0
 324 315 302 417 184 513 c 1
 195 383 l 1
 109 375 l 1
 86 638 l 1
 349 661 l 1
 357 575 l 1
 253 566 l 1
EndSplineSet
EndChar

StartChar: uni293A
Encoding: 158 10554 158
Width: 930
Flags: HW
HStem: 335 86<408.355 619.461>
LayerCount: 2
Fore
SplineSet
199 264 m 1
 256 329 363 421 514 421 c 0
 642 421 758 353 832 247 c 1
 762 197 l 1
 704 280 613 335 513 335 c 0
 450 335 348 313 253 195 c 1
 382 206 l 1
 390 120 l 1
 127 97 l 1
 104 360 l 1
 190 368 l 1
 199 264 l 1
EndSplineSet
EndChar

StartChar: uni2939
Encoding: 159 10553 159
Width: 578
Flags: HW
VStem: 168 86<243.355 454.461>
LayerCount: 2
Fore
SplineSet
325 34 m 1
 260 91 168 198 168 349 c 0
 168 477 236 593 342 667 c 1
 392 597 l 1
 309 539 254 448 254 348 c 0
 254 285 276 183 394 88 c 1
 383 217 l 1
 469 225 l 1
 492 -38 l 1
 229 -61 l 1
 221 25 l 1
 325 34 l 1
EndSplineSet
EndChar

StartChar: uni2934
Encoding: 160 10548 160
Width: 992
Flags: HW
HStem: 71 86<211.201 389.05>
VStem: 574 86<344.766 514>
LayerCount: 2
Fore
SplineSet
275 157 m 0
 435 157 574 270 574 473 c 0
 574 490 573 507 571 524 c 1
 488 425 l 1
 422 480 l 1
 592 682 l 1
 794 513 l 1
 738 447 l 1
 658 514 l 1
 659 501 660 488 660 475 c 0
 660 223 486 71 275 71 c 0
 250 71 224 74 199 78 c 1
 213 163 l 1
 234 159 254 157 275 157 c 0
EndSplineSet
EndChar

StartChar: sym06D
Encoding: 161 -1 161
Width: 992
Flags: HW
HStem: 378 86<283 451.646>
VStem: 639 86<16.2426 191.854>
LayerCount: 2
Fore
SplineSet
639 80 m 0
 639 238 527 378 323 378 c 0
 306 378 288 377 271 375 c 1
 371 292 l 1
 316 226 l 1
 114 396 l 1
 283 598 l 1
 349 542 l 1
 283 463 l 1
 295 464 307 464 319 464 c 0
 577 464 725 285 725 78 c 0
 725 53 722 28 718 3 c 1
 633 18 l 1
 637 38 639 59 639 80 c 0
EndSplineSet
EndChar

StartChar: sym06E
Encoding: 162 -1 162
Width: 992
Flags: HW
HStem: 443 86<603.243 779.731>
VStem: 332 85<87 255.339>
LayerCount: 2
Fore
SplineSet
716 443 m 0
 558 443 417 332 417 126 c 0
 417 109 418 92 420 75 c 1
 504 175 l 1
 570 120 l 1
 400 -82 l 1
 198 87 l 1
 254 153 l 1
 333 87 l 1
 332 100 332 111 332 124 c 0
 332 378 508 529 717 529 c 0
 742 529 768 526 793 522 c 1
 778 437 l 1
 758 441 737 443 716 443 c 0
EndSplineSet
EndChar

StartChar: uni2937
Encoding: 163 10551 163
Width: 992
Flags: HW
HStem: 136 86<541.303 709>
VStem: 267 86<406.924 583.731>
LayerCount: 2
Fore
SplineSet
353 520 m 0
 353 361 466 222 669 222 c 0
 686 222 703 223 720 225 c 1
 621 308 l 1
 676 374 l 1
 878 204 l 1
 709 2 l 1
 643 58 l 1
 709 137 l 1
 697 136 685 136 673 136 c 0
 419 136 267 311 267 521 c 0
 267 546 270 572 274 597 c 1
 359 582 l 1
 355 562 353 541 353 520 c 0
EndSplineSet
EndChar

StartChar: sym06F
Encoding: 164 -1 164
Width: 1080
Flags: HW
HStem: 335 86<427.808 652.192>
LayerCount: 2
Fore
SplineSet
945 97 m 1
 683 120 l 1
 690 206 l 1
 818 195 l 1
 747 278 649 335 540 335 c 0
 431 335 333 278 262 195 c 1
 390 206 l 1
 397 120 l 1
 135 97 l 1
 112 360 l 1
 197 368 l 1
 207 262 l 1
 293 358 410 421 540 421 c 0
 670 421 787 358 873 262 c 1
 883 368 l 1
 968 360 l 1
 945 97 l 1
EndSplineSet
EndChar

StartChar: sym070
Encoding: 165 -1 165
Width: 578
Flags: HW
VStem: 168 86<187.808 412.192>
LayerCount: 2
Fore
SplineSet
492 705 m 1
 469 443 l 1
 383 450 l 1
 394 578 l 1
 311 507 254 409 254 300 c 0
 254 191 311 93 394 22 c 1
 383 150 l 1
 469 157 l 1
 492 -105 l 1
 229 -128 l 1
 221 -43 l 1
 327 -33 l 1
 231 53 168 170 168 300 c 0
 168 430 231 547 327 633 c 1
 221 643 l 1
 229 728 l 1
 492 705 l 1
EndSplineSet
EndChar

StartChar: sym071
Encoding: 166 -1 166
Width: 1080
Flags: HW
HStem: 179 86<427.808 652.192>
LayerCount: 2
Fore
SplineSet
135 503 m 1
 397 480 l 1
 390 394 l 1
 262 405 l 1
 333 322 431 265 540 265 c 0
 649 265 747 322 818 405 c 1
 690 394 l 1
 683 480 l 1
 945 503 l 1
 968 240 l 1
 883 232 l 1
 873 338 l 1
 787 242 670 179 540 179 c 0
 410 179 293 242 207 338 c 1
 197 232 l 1
 112 240 l 1
 135 503 l 1
EndSplineSet
EndChar

StartChar: sym072
Encoding: 167 -1 167
Width: 578
Flags: HW
VStem: 324 86<187.587 412.413>
LayerCount: 2
Fore
SplineSet
86 -105 m 1
 109 157 l 1
 195 150 l 1
 184 22 l 1
 267 93 324 190 324 300 c 0
 324 410 267 507 184 578 c 1
 195 450 l 1
 109 443 l 1
 86 705 l 1
 349 728 l 1
 357 643 l 1
 252 633 l 1
 348 547 410 430 410 300 c 0
 410 170 348 53 252 -33 c 1
 357 -43 l 1
 349 -128 l 1
 86 -105 l 1
EndSplineSet
EndChar

StartChar: sym074
Encoding: 168 -1 168
Width: 1098
Flags: HW
HStem: 424 86<653.782 811>
VStem: 339 86<37 195.218>
LayerCount: 2
Fore
SplineSet
339 68 m 0
 339 327 522 510 781 510 c 0
 791 510 801 510 811 509 c 1
 743 590 l 1
 809 645 l 1
 979 443 l 1
 777 274 l 1
 722 340 l 1
 820 422 l 1
 807 423 794 424 781 424 c 0
 570 424 425 279 425 68 c 0
 425 55 426 42 427 29 c 1
 509 127 l 1
 575 72 l 1
 406 -130 l 1
 204 40 l 1
 259 105 l 1
 340 37 l 1
 339 47 339 58 339 68 c 0
EndSplineSet
EndChar

StartChar: sym073
Encoding: 169 -1 169
Width: 1098
Flags: HW
HStem: 90 86<653.782 811>
VStem: 339 86<404.782 563>
LayerCount: 2
Fore
SplineSet
781 90 m 0
 522 90 339 273 339 532 c 0
 339 542 339 553 340 563 c 1
 259 495 l 1
 204 560 l 1
 406 730 l 1
 575 528 l 1
 509 473 l 1
 427 571 l 1
 426 558 425 545 425 532 c 0
 425 321 570 176 781 176 c 0
 794 176 807 177 820 178 c 1
 722 260 l 1
 777 326 l 1
 979 157 l 1
 809 -45 l 1
 743 10 l 1
 811 91 l 1
 801 90 791 90 781 90 c 0
EndSplineSet
EndChar

StartChar: sym076
Encoding: 170 -1 170
Width: 1098
Flags: HW
HStem: 90 86<286 443.51>
VStem: 673 86<405.788 563>
LayerCount: 2
Fore
SplineSet
759 533 m 0
 759 278 577 90 316 90 c 0
 306 90 296 90 286 91 c 1
 354 10 l 1
 288 -45 l 1
 119 157 l 1
 321 326 l 1
 376 260 l 1
 278 178 l 1
 291 177 304 176 317 176 c 0
 525 176 673 319 673 533 c 0
 673 546 672 558 671 571 c 1
 589 473 l 1
 523 528 l 1
 692 730 l 1
 894 560 l 1
 839 495 l 1
 758 563 l 1
 759 553 759 543 759 533 c 0
EndSplineSet
EndChar

StartChar: sym075
Encoding: 171 -1 171
Width: 1098
Flags: HW
HStem: 424 86<286 443.51>
VStem: 673 86<37 194.212>
LayerCount: 2
Fore
SplineSet
316 510 m 0
 577 510 759 322 759 67 c 0
 759 57 759 47 758 37 c 1
 839 105 l 1
 894 40 l 1
 692 -130 l 1
 523 72 l 1
 589 127 l 1
 671 29 l 1
 672 42 673 54 673 67 c 0
 673 281 525 424 317 424 c 0
 304 424 291 423 278 422 c 1
 376 340 l 1
 321 274 l 1
 119 443 l 1
 288 645 l 1
 354 590 l 1
 286 509 l 1
 296 510 306 510 316 510 c 0
EndSplineSet
EndChar

StartChar: sym077
Encoding: 172 -1 172
Width: 930
Flags: HW
HStem: 257 86<176 840>
VStem: 90 86<101 257 343 499>
LayerCount: 2
Fore
SplineSet
176 101 m 1
 90 101 l 1
 90 499 l 1
 176 499 l 1
 176 343 l 1
 840 343 l 1
 840 257 l 1
 176 257 l 1
 176 101 l 1
EndSplineSet
EndChar

StartChar: sym078
Encoding: 173 -1 173
Width: 930
Flags: HW
HStem: 257 86<90 754>
VStem: 754 86<101 257 343 499>
LayerCount: 2
Fore
SplineSet
754 499 m 1
 840 499 l 1
 840 101 l 1
 754 101 l 1
 754 257 l 1
 90 257 l 1
 90 343 l 1
 754 343 l 1
 754 499 l 1
EndSplineSet
EndChar

StartChar: sym079
Encoding: 174 -1 174
Width: 1260
Flags: HW
HStem: -179 86<507.055 756.064> 693 86<507.055 757.119>
VStem: 151 86<177.055 422.945> 1017 85<381.765 444.359>
LayerCount: 2
Fore
SplineSet
237 300 m 0
 237 83 413 -93 630 -93 c 0
 792 -93 936 6 995 155 c 1
 867 108 l 1
 837 189 l 1
 1085 279 l 1
 1175 32 l 1
 1094 2 l 1
 1062 92 l 1
 1039 44 1007 0 969 -39 c 0
 879 -128 757 -179 630 -179 c 0
 365 -179 151 35 151 300 c 0
 151 565 365 779 630 779 c 0
 862 779 1062 612 1102 383 c 1
 1017 368 l 1
 984 557 820 693 630 693 c 0
 413 693 237 517 237 300 c 0
EndSplineSet
EndChar

StartChar: uni21BA
Encoding: 175 8634 175
Width: 1260
Flags: HW
HStem: -179 86<507.055 752.945> 687 85<485.641 548.235>
VStem: 151 86<177.055 427.119> 1023 86<177.055 426.064>
LayerCount: 2
Fore
SplineSet
630 -93 m 0
 847 -93 1023 83 1023 300 c 0
 1023 462 924 606 775 665 c 1
 822 537 l 1
 741 507 l 1
 651 755 l 1
 898 845 l 1
 928 764 l 1
 838 732 l 1
 886 709 930 677 969 639 c 0
 1058 549 1109 427 1109 300 c 0
 1109 35 895 -179 630 -179 c 0
 365 -179 151 35 151 300 c 0
 151 532 318 732 547 772 c 1
 562 687 l 1
 373 654 237 490 237 300 c 0
 237 83 413 -93 630 -93 c 0
EndSplineSet
EndChar

StartChar: uni27F2
Encoding: 176 10226 176
Width: 1260
Flags: HW
HStem: -179 86<502.881 752.945> 693 86<503.936 752.945>
VStem: 158 85<155.641 218.235> 1023 86<177.055 422.945>
LayerCount: 2
Fore
SplineSet
1023 300 m 0
 1023 517 847 693 630 693 c 0
 468 693 324 594 265 445 c 1
 393 492 l 1
 423 411 l 1
 175 321 l 1
 85 568 l 1
 166 598 l 1
 198 508 l 1
 221 556 253 600 291 639 c 0
 381 728 503 779 630 779 c 0
 895 779 1109 565 1109 300 c 0
 1109 35 895 -179 630 -179 c 0
 398 -179 198 -12 158 217 c 1
 243 232 l 1
 276 43 440 -93 630 -93 c 0
 847 -93 1023 83 1023 300 c 0
EndSplineSet
EndChar

StartChar: sym07C
Encoding: 177 -1 177
Width: 1260
Flags: HW
HStem: -172 85<711.765 774.359> 693 86<507.055 752.945>
VStem: 151 86<173.936 422.945> 1023 86<172.881 422.945>
LayerCount: 2
Fore
SplineSet
630 693 m 0
 413 693 237 517 237 300 c 0
 237 138 336 -6 485 -65 c 1
 438 63 l 1
 519 93 l 1
 609 -155 l 1
 362 -245 l 1
 332 -164 l 1
 422 -132 l 1
 374 -109 330 -77 291 -39 c 0
 202 51 151 173 151 300 c 0
 151 565 365 779 630 779 c 0
 895 779 1109 565 1109 300 c 0
 1109 68 942 -132 713 -172 c 1
 698 -87 l 1
 887 -54 1023 110 1023 300 c 0
 1023 517 847 693 630 693 c 0
EndSplineSet
EndChar

StartChar: uni27F3
Encoding: 178 10227 178
Width: 1260
Flags: HW
HStem: -179 86<507.055 757.119> 693 86<507.055 756.064>
VStem: 151 86<177.055 422.945> 1017 85<155.641 218.235>
LayerCount: 2
Fore
SplineSet
151 300 m 0
 151 565 365 779 630 779 c 0
 757 779 879 728 969 639 c 0
 1007 600 1039 556 1062 508 c 1
 1094 598 l 1
 1175 568 l 1
 1085 321 l 1
 837 411 l 1
 867 492 l 1
 995 445 l 1
 936 594 792 693 630 693 c 0
 413 693 237 517 237 300 c 0
 237 83 413 -93 630 -93 c 0
 820 -93 984 43 1017 232 c 1
 1102 217 l 1
 1062 -12 862 -179 630 -179 c 0
 365 -179 151 35 151 300 c 0
EndSplineSet
EndChar

StartChar: uni21BB
Encoding: 179 8635 179
Width: 1260
Flags: HW
HStem: -179 86<507.055 752.945> 687 85<711.765 774.359>
VStem: 151 86<177.055 426.064> 1023 86<177.055 427.119>
LayerCount: 2
Fore
SplineSet
630 -179 m 0
 365 -179 151 35 151 300 c 0
 151 427 202 549 291 639 c 0
 330 677 374 709 422 732 c 1
 332 764 l 1
 362 845 l 1
 609 755 l 1
 519 507 l 1
 438 537 l 1
 485 665 l 1
 336 606 237 462 237 300 c 0
 237 83 413 -93 630 -93 c 0
 847 -93 1023 83 1023 300 c 0
 1023 490 887 654 698 687 c 1
 713 772 l 1
 942 732 1109 532 1109 300 c 0
 1109 35 895 -179 630 -179 c 0
EndSplineSet
EndChar

StartChar: sym07A
Encoding: 180 -1 180
Width: 1260
Flags: HW
HStem: -179 86<503.936 752.945> 693 86<502.881 752.945>
VStem: 158 85<381.765 444.359> 1023 86<177.055 422.945>
LayerCount: 2
Fore
SplineSet
1109 300 m 0
 1109 35 895 -179 630 -179 c 0
 503 -179 381 -128 291 -39 c 0
 253 0 221 44 198 92 c 1
 166 2 l 1
 85 32 l 1
 175 279 l 1
 423 189 l 1
 393 108 l 1
 265 155 l 1
 324 6 468 -93 630 -93 c 0
 847 -93 1023 83 1023 300 c 0
 1023 517 847 693 630 693 c 0
 440 693 276 557 243 368 c 1
 158 383 l 1
 198 612 398 779 630 779 c 0
 895 779 1109 565 1109 300 c 0
EndSplineSet
EndChar

StartChar: sym07B
Encoding: 181 -1 181
Width: 1260
Flags: HW
HStem: -172 85<485.641 548.235> 693 86<507.055 752.945>
VStem: 151 86<172.881 422.945> 1023 86<173.936 422.945>
LayerCount: 2
Fore
SplineSet
630 779 m 0
 895 779 1109 565 1109 300 c 0
 1109 173 1058 51 969 -39 c 0
 930 -77 886 -109 838 -132 c 1
 928 -164 l 1
 898 -245 l 1
 651 -155 l 1
 741 93 l 1
 822 63 l 1
 775 -65 l 1
 924 -6 1023 138 1023 300 c 0
 1023 517 847 693 630 693 c 0
 413 693 237 517 237 300 c 0
 237 110 373 -54 562 -87 c 1
 547 -172 l 1
 318 -132 151 68 151 300 c 0
 151 565 365 779 630 779 c 0
EndSplineSet
EndChar

StartChar: uni21DB
Encoding: 182 8667 182
Width: 1080
Flags: HW
HStem: 136 68<90 723> 266 68<90 852> 396 68<90 723>
CounterMasks: 1 e0
LayerCount: 2
Fore
SplineSet
1008 300 m 1
 743 36 l 1
 683 96 l 1
 723 136 l 1
 90 136 l 1
 90 204 l 1
 790 204 l 1
 852 266 l 1
 90 266 l 1
 90 334 l 1
 852 334 l 1
 790 396 l 1
 90 396 l 1
 90 464 l 1
 723 464 l 1
 683 504 l 1
 743 564 l 1
 1008 300 l 1
EndSplineSet
EndChar

StartChar: uni290A
Encoding: 183 10506 183
Width: 703
Flags: HW
VStem: 187 69<-150 482> 317 69<-150 611> 447 69<-150 482>
CounterMasks: 1 e0
LayerCount: 2
Fore
SplineSet
351 768 m 1
 616 503 l 1
 555 443 l 1
 516 482 l 1
 516 -150 l 1
 447 -150 l 1
 447 550 l 1
 386 611 l 1
 386 -150 l 1
 317 -150 l 1
 317 612 l 1
 256 551 l 1
 256 -150 l 1
 187 -150 l 1
 187 482 l 1
 148 443 l 1
 87 503 l 1
 351 768 l 1
EndSplineSet
EndChar

StartChar: uni21DA
Encoding: 184 8666 184
Width: 1080
Flags: HW
HStem: 136 68<357 990> 266 68<228 990> 396 68<357 990>
CounterMasks: 1 e0
LayerCount: 2
Fore
SplineSet
72 300 m 1
 337 564 l 1
 397 504 l 1
 357 464 l 1
 990 464 l 1
 990 396 l 1
 290 396 l 1
 228 334 l 1
 990 334 l 1
 990 266 l 1
 228 266 l 1
 290 204 l 1
 990 204 l 1
 990 136 l 1
 357 136 l 1
 397 96 l 1
 337 36 l 1
 72 300 l 1
EndSplineSet
EndChar

StartChar: uni290B
Encoding: 185 10507 185
Width: 703
Flags: HW
VStem: 187 69<118 750> 317 69<-11 750> 447 69<118 750>
CounterMasks: 1 e0
LayerCount: 2
Fore
SplineSet
351 -168 m 1
 87 97 l 1
 148 157 l 1
 187 118 l 1
 187 750 l 1
 256 750 l 1
 256 49 l 1
 317 -12 l 1
 317 750 l 1
 386 750 l 1
 386 -11 l 1
 447 50 l 1
 447 750 l 1
 516 750 l 1
 516 118 l 1
 555 157 l 1
 616 97 l 1
 351 -168 l 1
EndSplineSet
EndChar

StartChar: uni27F6
Encoding: 186 10230 186
Width: 1680
Flags: HW
HStem: 257 86<90 1443>
LayerCount: 2
Fore
SplineSet
1608 300 m 1
 1421 114 l 1
 1361 174 l 1
 1443 257 l 1
 90 257 l 1
 90 343 l 1
 1443 343 l 1
 1361 426 l 1
 1421 486 l 1
 1608 300 l 1
EndSplineSet
EndChar

StartChar: uni27F5
Encoding: 187 10229 187
Width: 1680
Flags: HW
HStem: 257 86<237 1590>
LayerCount: 2
Fore
SplineSet
72 300 m 1
 259 486 l 1
 319 426 l 1
 237 343 l 1
 1590 343 l 1
 1590 257 l 1
 237 257 l 1
 319 174 l 1
 259 114 l 1
 72 300 l 1
EndSplineSet
EndChar

StartChar: uni27F9
Encoding: 188 10233 188
Width: 1680
Flags: HW
HStem: 160 86<90 1346> 354 87<90 1346>
LayerCount: 2
Fore
SplineSet
1608 300 m 1
 1375 67 l 1
 1314 128 l 1
 1346 160 l 1
 90 160 l 1
 90 246 l 1
 1432 246 l 1
 1486 300 l 1
 1432 354 l 1
 90 354 l 1
 90 441 l 1
 1346 440 l 1
 1314 472 l 1
 1375 533 l 1
 1608 300 l 1
EndSplineSet
EndChar

StartChar: uni27F8
Encoding: 189 10232 189
Width: 1680
Flags: HW
HStem: 160 86<334 1590> 354 86<334 1590>
LayerCount: 2
Fore
SplineSet
72 300 m 1
 305 533 l 1
 366 472 l 1
 334 440 l 1
 1590 441 l 1
 1590 355 l 1
 248 354 l 1
 194 300 l 1
 248 246 l 1
 1590 246 l 1
 1590 160 l 1
 334 160 l 1
 366 128 l 1
 305 67 l 1
 72 300 l 1
EndSplineSet
EndChar

StartChar: uni27F7
Encoding: 190 10231 190
Width: 1680
Flags: HW
HStem: 257 86<237 1443>
LayerCount: 2
Fore
SplineSet
72 300 m 1
 259 486 l 1
 319 426 l 1
 237 343 l 1
 1443 343 l 1
 1361 426 l 1
 1421 486 l 1
 1608 300 l 1
 1421 114 l 1
 1361 174 l 1
 1443 257 l 1
 237 257 l 1
 319 174 l 1
 259 114 l 1
 72 300 l 1
EndSplineSet
EndChar

StartChar: uni27FA
Encoding: 191 10234 191
Width: 1680
Flags: HW
HStem: 160 86<334 1346> 354 86<334 1346>
LayerCount: 2
Fore
SplineSet
1432 354 m 1
 248 354 l 1
 194 300 l 1
 248 246 l 1
 1432 246 l 1
 1486 300 l 1
 1432 354 l 1
72 300 m 1
 305 533 l 1
 366 472 l 1
 334 440 l 1
 1346 440 l 1
 1314 472 l 1
 1375 533 l 1
 1608 300 l 1
 1375 67 l 1
 1314 128 l 1
 1346 160 l 1
 334 160 l 1
 366 128 l 1
 305 67 l 1
 72 300 l 1
EndSplineSet
EndChar

StartChar: uni27FC
Encoding: 192 10236 192
Width: 1680
Flags: HW
HStem: 257 86<176 1443>
VStem: 90 86<101 257 343 499>
LayerCount: 2
Fore
SplineSet
1608 300 m 1
 1421 114 l 1
 1361 174 l 1
 1443 257 l 1
 176 257 l 1
 176 101 l 1
 90 101 l 1
 90 499 l 1
 176 499 l 1
 176 343 l 1
 1443 343 l 1
 1361 426 l 1
 1421 486 l 1
 1608 300 l 1
EndSplineSet
EndChar

StartChar: uni27FB
Encoding: 193 10235 193
Width: 1680
Flags: HW
HStem: 257 86<237 1504>
VStem: 1504 86<101 257 343 499>
LayerCount: 2
Fore
SplineSet
72 300 m 1
 259 486 l 1
 319 426 l 1
 237 343 l 1
 1504 343 l 1
 1504 499 l 1
 1590 499 l 1
 1590 101 l 1
 1504 101 l 1
 1504 257 l 1
 237 257 l 1
 319 174 l 1
 259 114 l 1
 72 300 l 1
EndSplineSet
EndChar

StartChar: uni27FE
Encoding: 194 10238 194
Width: 1680
Flags: HW
HStem: 160 86<176 1346> 354 87<176 1346> 526 20G<90 176>
VStem: 90 86<54 160 246 354 441 546>
LayerCount: 2
Fore
SplineSet
176 354 m 1
 176 246 l 1
 1432 246 l 1
 1486 300 l 1
 1432 354 l 1
 176 354 l 1
1608 300 m 1
 1375 67 l 1
 1314 128 l 1
 1346 160 l 1
 176 160 l 1
 176 54 l 1
 90 54 l 1
 90 546 l 1
 176 546 l 1
 176 441 l 1
 1346 440 l 1
 1314 472 l 1
 1375 533 l 1
 1608 300 l 1
EndSplineSet
EndChar

StartChar: uni27FD
Encoding: 195 10237 195
Width: 1680
Flags: HW
HStem: 160 86<334 1504> 354 86<334 1504> 526 20G<1504 1590>
VStem: 1504 86<54 160 246 355 441 546>
LayerCount: 2
Fore
SplineSet
1504 246 m 1
 1504 355 l 1
 248 354 l 1
 194 300 l 1
 248 246 l 1
 1504 246 l 1
72 300 m 1
 305 533 l 1
 366 472 l 1
 334 440 l 1
 1504 441 l 1
 1504 546 l 1
 1590 546 l 1
 1590 54 l 1
 1504 54 l 1
 1504 160 l 1
 334 160 l 1
 366 128 l 1
 305 67 l 1
 72 300 l 1
EndSplineSet
EndChar

StartChar: uni27FF
Encoding: 196 10239 196
Width: 1680
Flags: HW
HStem: 179 86<423.978 498.561 819.444 894.409 1214.44 1281.73> 257 86<1352.34 1443> 335 86<219.299 301.556 622.439 697.022 1015.98 1090.56>
LayerCount: 2
Fore
SplineSet
1608 300 m 1x40
 1421 114 l 1
 1361 174 l 1
 1443 257 l 1
 1383 257 l 2x40
 1367 257 1358 242 1347 231 c 0
 1320 204 1289 179 1251 179 c 0
 1193 179 1151 227 1117 275 c 0
 1099 301 1085 335 1054 335 c 0
 1023 335 1008 301 990 275 c 0
 956 227 915 179 856 179 c 0
 798 179 756 227 723 275 c 0
 705 301 690 335 659 335 c 0
 628 335 614 301 596 275 c 0
 562 227 520 179 462 179 c 0
 404 179 362 227 328 275 c 0
 310 301 296 335 265 335 c 0
 215 335 197 277 168 236 c 1
 98 286 l 1
 142 349 188 421 265 421 c 0
 323 421 365 373 398 325 c 0
 416 299 431 265 462 265 c 0
 493 265 507 299 525 325 c 0
 559 373 601 421 659 421 c 0
 717 421 759 373 793 325 c 0
 811 299 825 265 856 265 c 0
 888 265 902 299 920 325 c 0
 954 373 996 421 1054 421 c 0
 1112 421 1154 373 1188 325 c 0
 1206 299 1220 265 1251 265 c 0xa0
 1267 265 1275 280 1286 291 c 0
 1313 318 1345 343 1383 343 c 2
 1443 343 l 1
 1361 426 l 1
 1421 486 l 1
 1608 300 l 1x40
EndSplineSet
EndChar

StartChar: uni2B33
Encoding: 197 11059 197
Width: 1680
Flags: HW
HStem: 179 86<398.269 465.561 785.591 860.556 1181.44 1256.02> 257 86<237 327.661> 335 86<589.439 664.022 982.978 1057.56 1378.44 1460.7>
LayerCount: 2
Fore
SplineSet
72 300 m 1x40
 259 486 l 1
 319 426 l 1
 237 343 l 1
 297 343 l 2x40
 335 343 367 318 394 291 c 0
 405 280 413 265 429 265 c 0
 460 265 474 299 492 325 c 0
 526 373 568 421 626 421 c 0
 684 421 726 373 760 325 c 0
 778 299 792 265 824 265 c 0
 855 265 869 299 887 325 c 0
 921 373 963 421 1021 421 c 0
 1079 421 1121 373 1155 325 c 0
 1173 299 1187 265 1218 265 c 0
 1249 265 1264 299 1282 325 c 0
 1315 373 1357 421 1415 421 c 0
 1492 421 1538 349 1582 286 c 1
 1512 236 l 1
 1483 277 1465 335 1415 335 c 0
 1384 335 1370 301 1352 275 c 0
 1318 227 1276 179 1218 179 c 0
 1160 179 1118 227 1084 275 c 0
 1066 301 1052 335 1021 335 c 0
 990 335 975 301 957 275 c 0
 924 227 882 179 824 179 c 0
 765 179 724 227 690 275 c 0
 672 301 657 335 626 335 c 0
 595 335 581 301 563 275 c 0
 529 227 487 179 429 179 c 0xa0
 391 179 360 204 333 231 c 0
 322 242 313 257 297 257 c 2
 237 257 l 1
 319 174 l 1
 259 114 l 1
 72 300 l 1x40
EndSplineSet
EndChar

StartChar: uni27DD
Encoding: 198 10205 198
Width: 1680
Flags: HW
HStem: 257 86<176 1590>
VStem: 90 86<101 257 343 499>
LayerCount: 2
Fore
SplineSet
176 101 m 1
 90 101 l 1
 90 499 l 1
 176 499 l 1
 176 343 l 1
 1590 343 l 1
 1590 257 l 1
 176 257 l 1
 176 101 l 1
EndSplineSet
EndChar

StartChar: uni27DE
Encoding: 199 10206 199
Width: 1680
Flags: HW
HStem: 257 86<90 1504>
VStem: 1504 86<101 257 343 499>
LayerCount: 2
Fore
SplineSet
1504 499 m 1
 1590 499 l 1
 1590 101 l 1
 1504 101 l 1
 1504 257 l 1
 90 257 l 1
 90 343 l 1
 1504 343 l 1
 1504 499 l 1
EndSplineSet
EndChar

StartChar: uni21B0
Encoding: 200 8624 200
Width: 682
Flags: HW
HStem: 413 86<237 506>
VStem: 506 86<-55 413>
LayerCount: 2
Fore
SplineSet
72 456 m 1
 259 642 l 1
 319 582 l 1
 237 499 l 1
 592 499 l 1
 592 -55 l 1
 506 -55 l 1
 506 413 l 1
 237 413 l 1
 319 330 l 1
 259 270 l 1
 72 456 l 1
EndSplineSet
EndChar

StartChar: uni21B1
Encoding: 201 8625 201
Width: 682
Flags: HW
HStem: 413 86<176 445>
VStem: 90 86<-55 413>
LayerCount: 2
Fore
SplineSet
610 456 m 1
 423 270 l 1
 363 330 l 1
 445 413 l 1
 176 413 l 1
 176 -55 l 1
 90 -55 l 1
 90 499 l 1
 445 499 l 1
 363 582 l 1
 423 642 l 1
 610 456 l 1
EndSplineSet
EndChar

StartChar: uni21B2
Encoding: 202 8626 202
Width: 682
Flags: HW
HStem: 101 86<237 506>
VStem: 506 86<187 655>
LayerCount: 2
Fore
SplineSet
72 144 m 1
 259 330 l 1
 319 270 l 1
 237 187 l 1
 506 187 l 1
 506 655 l 1
 592 655 l 1
 592 101 l 1
 237 101 l 1
 319 18 l 1
 259 -42 l 1
 72 144 l 1
EndSplineSet
EndChar

StartChar: uni21B3
Encoding: 203 8627 203
Width: 682
Flags: HW
HStem: 101 86<176 445>
VStem: 90 86<187 655>
LayerCount: 2
Fore
SplineSet
610 144 m 1
 423 -42 l 1
 363 18 l 1
 445 101 l 1
 90 101 l 1
 90 655 l 1
 176 655 l 1
 176 187 l 1
 445 187 l 1
 363 270 l 1
 423 330 l 1
 610 144 l 1
EndSplineSet
EndChar

StartChar: uni21AC
Encoding: 204 8620 204
Width: 930
Flags: HW
HStem: 257 86<232.133 422 508 693> 589 86<231.166 366.834>
VStem: 90 86<398.166 533.834> 422 86<-75 257 343 532.867>
LayerCount: 2
Fore
SplineSet
422 343 m 1
 422 466 l 2
 422 534 367 589 299 589 c 0
 231 589 176 534 176 466 c 0
 176 398 231 343 299 343 c 2
 422 343 l 1
858 300 m 1
 671 114 l 1
 611 174 l 1
 693 257 l 1
 508 257 l 1
 508 -75 l 1
 422 -75 l 1
 422 257 l 1
 299 257 l 2
 184 257 90 351 90 466 c 0
 90 581 184 675 299 675 c 0
 414 675 508 581 508 466 c 2
 508 343 l 1
 693 343 l 1
 611 426 l 1
 671 486 l 1
 858 300 l 1
EndSplineSet
EndChar

StartChar: uni21AB
Encoding: 205 8619 205
Width: 930
Flags: HW
HStem: 257 86<237 422 508 697.867> 589 86<563.166 698.834>
VStem: 422 86<-75 257 343 532.867> 754 86<398.166 533.834>
LayerCount: 2
Fore
SplineSet
508 343 m 1
 631 343 l 2
 699 343 754 398 754 466 c 0
 754 534 699 589 631 589 c 0
 563 589 508 534 508 466 c 2
 508 343 l 1
72 300 m 1
 259 486 l 1
 319 426 l 1
 237 343 l 1
 422 343 l 1
 422 466 l 2
 422 581 516 675 631 675 c 0
 746 675 840 581 840 466 c 0
 840 351 746 257 631 257 c 2
 508 257 l 1
 508 -75 l 1
 422 -75 l 1
 422 257 l 1
 237 257 l 1
 319 174 l 1
 259 114 l 1
 72 300 l 1
EndSplineSet
EndChar

StartChar: uni22A2
Encoding: 224 8866 206
Width: 840
Flags: HW
HStem: 0 21G<90 176> 311 86<176 750> 687 20G<90 176>
VStem: 90 86<0 311 397 707>
LayerCount: 2
Fore
SplineSet
176 0 m 1
 90 0 l 1
 90 707 l 1
 176 707 l 1
 176 397 l 1
 750 397 l 1
 750 311 l 1
 176 311 l 1
 176 0 l 1
EndSplineSet
EndChar

StartChar: uni22A5
Encoding: 225 8869 207
Width: 840
Flags: HW
HStem: 0 86<90 377 463 750> 687 20G<377 463>
VStem: 377 86<86 707>
LayerCount: 2
Fore
SplineSet
750 86 m 1
 750 0 l 1
 90 0 l 1
 90 86 l 1
 377 86 l 1
 377 707 l 1
 463 707 l 1
 463 86 l 1
 750 86 l 1
EndSplineSet
EndChar

StartChar: uni22A3
Encoding: 226 8867 208
Width: 840
Flags: HW
HStem: 0 21G<664 750> 311 86<90 664> 687 20G<664 750>
VStem: 664 86<0 311 397 707>
LayerCount: 2
Fore
SplineSet
664 707 m 1
 750 707 l 1
 750 0 l 1
 664 0 l 1
 664 311 l 1
 90 311 l 1
 90 397 l 1
 664 397 l 1
 664 707 l 1
EndSplineSet
EndChar

StartChar: uni22A4
Encoding: 227 8868 209
Width: 840
Flags: HW
HStem: 0 21G<377 463> 621 86<90 377 463 750>
VStem: 377 86<0 621>
LayerCount: 2
Fore
SplineSet
90 621 m 1
 90 707 l 1
 750 707 l 1
 750 621 l 1
 463 621 l 1
 463 0 l 1
 377 0 l 1
 377 621 l 1
 90 621 l 1
EndSplineSet
EndChar

StartChar: uni22A6
Encoding: 228 8870 210
Width: 642
Flags: HW
HStem: 0 21G<90 176> 311 86<176 552> 687 20G<90 176>
VStem: 90 86<0 311 397 707>
LayerCount: 2
Fore
SplineSet
176 0 m 1
 90 0 l 1
 90 707 l 1
 176 707 l 1
 176 397 l 1
 552 397 l 1
 552 311 l 1
 176 311 l 1
 176 0 l 1
EndSplineSet
EndChar

StartChar: uni2AE0
Encoding: 229 10976 211
Width: 840
Flags: HW
HStem: 0 86<90 377 463 750>
VStem: 377 86<86 495>
LayerCount: 2
Fore
SplineSet
750 86 m 1
 750 0 l 1
 90 0 l 1
 90 86 l 1
 377 86 l 1
 377 495 l 1
 463 495 l 1
 463 86 l 1
 750 86 l 1
EndSplineSet
EndChar

StartChar: uni2ADE
Encoding: 230 10974 212
Width: 642
Flags: HW
HStem: 0 21G<466 552> 311 86<90 466> 687 20G<466 552>
VStem: 466 86<0 311 397 707>
LayerCount: 2
Fore
SplineSet
466 707 m 1
 552 707 l 1
 552 0 l 1
 466 0 l 1
 466 311 l 1
 90 311 l 1
 90 397 l 1
 466 397 l 1
 466 707 l 1
EndSplineSet
EndChar

StartChar: uni2ADF
Encoding: 231 10975 213
Width: 840
Flags: HW
HStem: 0 21G<377 463> 409 86<90 377 463 750>
VStem: 377 86<0 409>
LayerCount: 2
Fore
SplineSet
90 409 m 1
 90 495 l 1
 750 495 l 1
 750 409 l 1
 463 409 l 1
 463 0 l 1
 377 0 l 1
 377 409 l 1
 90 409 l 1
EndSplineSet
EndChar

StartChar: uni22A8
Encoding: 232 8872 214
Width: 840
Flags: HW
HStem: 0 21G<90 176> 213 86<176 750> 408 86<176 750> 687 20G<90 176>
VStem: 90 86<0 213 299 408 494 707>
LayerCount: 2
Fore
SplineSet
176 0 m 1
 90 0 l 1
 90 707 l 1
 176 707 l 1
 176 494 l 1
 750 494 l 1
 750 408 l 1
 176 408 l 1
 176 299 l 1
 750 299 l 1
 750 213 l 1
 176 213 l 1
 176 0 l 1
EndSplineSet
EndChar

StartChar: uni2AEB
Encoding: 233 10987 215
Width: 840
Flags: HW
HStem: 0 86<90 280 366 475 561 750> 687 20G<280 366 475 561>
VStem: 280 86<86 707> 475 86<86 707>
LayerCount: 2
Fore
SplineSet
750 86 m 1
 750 0 l 1
 90 0 l 1
 90 86 l 1
 280 86 l 1
 280 707 l 1
 366 707 l 1
 366 86 l 1
 475 86 l 1
 475 707 l 1
 561 707 l 1
 561 86 l 1
 750 86 l 1
EndSplineSet
EndChar

StartChar: uni2AE4
Encoding: 234 10980 216
Width: 840
Flags: HW
HStem: 0 21G<664 750> 213 86<90 664> 408 86<90 664> 687 20G<664 750>
VStem: 664 86<0 213 299 408 494 707>
LayerCount: 2
Fore
SplineSet
664 707 m 1
 750 707 l 1
 750 0 l 1
 664 0 l 1
 664 213 l 1
 90 213 l 1
 90 299 l 1
 664 299 l 1
 664 408 l 1
 90 408 l 1
 90 494 l 1
 664 494 l 1
 664 707 l 1
EndSplineSet
EndChar

StartChar: uni2AEA
Encoding: 235 10986 217
Width: 840
Flags: HW
HStem: 0 21G<280 366 475 561> 621 86<90 280 366 475 561 750>
VStem: 280 86<0 621> 475 86<0 621>
LayerCount: 2
Fore
SplineSet
90 621 m 1
 90 707 l 1
 750 707 l 1
 750 621 l 1
 561 621 l 1
 561 0 l 1
 475 0 l 1
 475 621 l 1
 366 621 l 1
 366 0 l 1
 280 0 l 1
 280 621 l 1
 90 621 l 1
EndSplineSet
EndChar

StartChar: uni22A7
Encoding: 236 8871 218
Width: 642
Flags: HW
HStem: 0 21G<90 176> 213 86<176 552> 408 86<176 552> 687 20G<90 176>
VStem: 90 86<0 213 299 408 494 707>
LayerCount: 2
Fore
SplineSet
176 0 m 1
 90 0 l 1
 90 707 l 1
 176 707 l 1
 176 494 l 1
 552 494 l 1
 552 408 l 1
 176 408 l 1
 176 299 l 1
 552 299 l 1
 552 213 l 1
 176 213 l 1
 176 0 l 1
EndSplineSet
EndChar

StartChar: sym07E
Encoding: 237 -1 219
Width: 840
Flags: HW
HStem: 0 86<90 280 366 475 561 750>
VStem: 280 86<86 495> 475 86<86 495>
LayerCount: 2
Fore
SplineSet
750 86 m 1
 750 0 l 1
 90 0 l 1
 90 86 l 1
 280 86 l 1
 280 495 l 1
 366 495 l 1
 366 86 l 1
 475 86 l 1
 475 495 l 1
 561 495 l 1
 561 86 l 1
 750 86 l 1
EndSplineSet
EndChar

StartChar: sym07D
Encoding: 238 -1 220
Width: 642
Flags: HW
HStem: 0 21G<466 552> 213 86<90 466> 408 86<90 466> 687 20G<466 552>
VStem: 466 86<0 213 299 408 494 707>
LayerCount: 2
Fore
SplineSet
466 707 m 1
 552 707 l 1
 552 0 l 1
 466 0 l 1
 466 213 l 1
 90 213 l 1
 90 299 l 1
 466 299 l 1
 466 408 l 1
 90 408 l 1
 90 494 l 1
 466 494 l 1
 466 707 l 1
EndSplineSet
EndChar

StartChar: sym07F
Encoding: 239 -1 221
Width: 840
Flags: HW
HStem: 0 21G<280 366 475 561> 409 86<90 280 366 475 561 750>
VStem: 280 86<0 409> 475 86<0 409>
LayerCount: 2
Fore
SplineSet
90 409 m 1
 90 495 l 1
 750 495 l 1
 750 409 l 1
 561 409 l 1
 561 0 l 1
 475 0 l 1
 475 409 l 1
 366 409 l 1
 366 0 l 1
 280 0 l 1
 280 409 l 1
 90 409 l 1
EndSplineSet
EndChar

StartChar: uni22A9
Encoding: 240 8873 222
Width: 1038
Flags: HW
HStem: 0 21G<90 176 288 374> 311 86<374 948> 687 20G<90 176 288 374>
VStem: 90 86<0 707> 288 86<0 311 397 707>
LayerCount: 2
Fore
SplineSet
176 0 m 1
 90 0 l 1
 90 707 l 1
 176 707 l 1
 176 0 l 1
374 0 m 1
 288 0 l 1
 288 707 l 1
 374 707 l 1
 374 397 l 1
 948 397 l 1
 948 311 l 1
 374 311 l 1
 374 0 l 1
EndSplineSet
EndChar

StartChar: uni234A
Encoding: 241 9034 223
Width: 840
Flags: HW
HStem: -106 86<90 750> 92 86<90 377 463 750>
VStem: 377 86<178 813>
LayerCount: 2
Fore
SplineSet
750 -20 m 1
 750 -106 l 1
 90 -106 l 1
 90 -20 l 1
 750 -20 l 1
750 178 m 1
 750 92 l 1
 90 92 l 1
 90 178 l 1
 377 178 l 1
 377 813 l 1
 463 813 l 1
 463 178 l 1
 750 178 l 1
EndSplineSet
EndChar

StartChar: uni2AE3
Encoding: 242 10979 224
Width: 1038
Flags: HW
HStem: 0 21G<664 750 862 948> 311 86<90 664> 687 20G<664 750 862 948>
VStem: 664 86<0 311 397 707> 862 86<0 707>
LayerCount: 2
Fore
SplineSet
862 707 m 1
 948 707 l 1
 948 0 l 1
 862 0 l 1
 862 707 l 1
664 707 m 1
 750 707 l 1
 750 0 l 1
 664 0 l 1
 664 311 l 1
 90 311 l 1
 90 397 l 1
 664 397 l 1
 664 707 l 1
EndSplineSet
EndChar

StartChar: uni2351
Encoding: 243 9041 225
Width: 840
Flags: HW
HStem: 529 86<90 377 463 750> 727 86<90 750>
VStem: 377 86<-106 529>
LayerCount: 2
Fore
SplineSet
90 727 m 1
 90 813 l 1
 750 813 l 1
 750 727 l 1
 90 727 l 1
90 529 m 1
 90 615 l 1
 750 615 l 1
 750 529 l 1
 463 529 l 1
 463 -106 l 1
 377 -106 l 1
 377 529 l 1
 90 529 l 1
EndSplineSet
EndChar

StartChar: uni22A9.alt
Encoding: 244 -1 226
Width: 840
Flags: HW
HStem: 0 21G<90 176 288 374> 311 86<374 750> 687 20G<90 176 288 374>
VStem: 90 86<0 707> 288 86<0 311 397 707>
LayerCount: 2
Fore
SplineSet
176 0 m 1
 90 0 l 1
 90 707 l 1
 176 707 l 1
 176 0 l 1
374 0 m 1
 288 0 l 1
 288 707 l 1
 374 707 l 1
 374 397 l 1
 750 397 l 1
 750 311 l 1
 374 311 l 1
 374 0 l 1
EndSplineSet
EndChar

StartChar: uni2AE8
Encoding: 245 10984 227
Width: 840
Flags: HW
HStem: 0 86<90 750> 198 86<90 377 463 750> 687 20G<377 463>
VStem: 377 86<284 707>
LayerCount: 2
Fore
SplineSet
750 86 m 1
 750 0 l 1
 90 0 l 1
 90 86 l 1
 750 86 l 1
750 284 m 1
 750 198 l 1
 90 198 l 1
 90 284 l 1
 377 284 l 1
 377 707 l 1
 463 707 l 1
 463 284 l 1
 750 284 l 1
EndSplineSet
EndChar

StartChar: uni2AE3.alt
Encoding: 246 -1 228
Width: 840
Flags: HW
HStem: 0 21G<466 552 664 750> 311 86<90 466> 687 20G<466 552 664 750>
VStem: 466 86<0 311 397 707> 664 86<0 707>
LayerCount: 2
Fore
SplineSet
664 707 m 1
 750 707 l 1
 750 0 l 1
 664 0 l 1
 664 707 l 1
466 707 m 1
 552 707 l 1
 552 0 l 1
 466 0 l 1
 466 311 l 1
 90 311 l 1
 90 397 l 1
 466 397 l 1
 466 707 l 1
EndSplineSet
EndChar

StartChar: uni2AE7
Encoding: 247 10983 229
Width: 840
Flags: HW
HStem: 0 21G<377 463> 423 86<90 377 463 750> 621 86<90 750>
VStem: 377 86<0 423>
LayerCount: 2
Fore
SplineSet
90 621 m 1
 90 707 l 1
 750 707 l 1
 750 621 l 1
 90 621 l 1
90 423 m 1
 90 509 l 1
 750 509 l 1
 750 423 l 1
 463 423 l 1
 463 0 l 1
 377 0 l 1
 377 423 l 1
 90 423 l 1
EndSplineSet
EndChar

StartChar: uni22AB
Encoding: 248 8875 230
Width: 1038
Flags: HW
HStem: 0 21G<90 176 288 374> 213 86<374 948> 408 86<374 948> 687 20G<90 176 288 374>
VStem: 90 86<0 707> 288 86<0 213 299 408 494 707>
LayerCount: 2
Fore
SplineSet
176 0 m 1
 90 0 l 1
 90 707 l 1
 176 707 l 1
 176 0 l 1
374 0 m 1
 288 0 l 1
 288 707 l 1
 374 707 l 1
 374 494 l 1
 948 494 l 1
 948 408 l 1
 374 408 l 1
 374 299 l 1
 948 299 l 1
 948 213 l 1
 374 213 l 1
 374 0 l 1
EndSplineSet
EndChar

StartChar: sym080
Encoding: 249 -1 231
Width: 840
Flags: HW
HStem: -106 86<90 750> 92 86<90 280 366 475 561 750>
VStem: 280 86<178 813> 475 86<178 813>
LayerCount: 2
Fore
SplineSet
750 -20 m 1
 750 -106 l 1
 90 -106 l 1
 90 -20 l 1
 750 -20 l 1
750 178 m 1
 750 92 l 1
 90 92 l 1
 90 178 l 1
 280 178 l 1
 280 813 l 1
 366 813 l 1
 366 178 l 1
 475 178 l 1
 475 813 l 1
 561 813 l 1
 561 178 l 1
 750 178 l 1
EndSplineSet
EndChar

StartChar: uni2AE5
Encoding: 250 10981 232
Width: 1038
Flags: HW
HStem: 0 21G<664 750 862 948> 213 86<90 664> 408 86<90 664> 687 20G<664 750 862 948>
VStem: 664 86<0 213 299 408 494 707> 862 86<0 707>
LayerCount: 2
Fore
SplineSet
862 707 m 1
 948 707 l 1
 948 0 l 1
 862 0 l 1
 862 707 l 1
664 707 m 1
 750 707 l 1
 750 0 l 1
 664 0 l 1
 664 213 l 1
 90 213 l 1
 90 299 l 1
 664 299 l 1
 664 408 l 1
 90 408 l 1
 90 494 l 1
 664 494 l 1
 664 707 l 1
EndSplineSet
EndChar

StartChar: sym081
Encoding: 251 -1 233
Width: 840
Flags: HW
HStem: 529 86<90 280 366 475 561 750> 727 86<90 750>
VStem: 280 86<-106 529> 475 86<-106 529>
LayerCount: 2
Fore
SplineSet
90 727 m 1
 90 813 l 1
 750 813 l 1
 750 727 l 1
 90 727 l 1
90 529 m 1
 90 615 l 1
 750 615 l 1
 750 529 l 1
 561 529 l 1
 561 -106 l 1
 475 -106 l 1
 475 529 l 1
 366 529 l 1
 366 -106 l 1
 280 -106 l 1
 280 529 l 1
 90 529 l 1
EndSplineSet
EndChar

StartChar: uni22AA
Encoding: 252 8874 234
Width: 1038
Flags: HW
HStem: 0 21G<90 176 288 374 486 572> 311 86<572 948> 687 20G<90 176 288 374 486 572>
VStem: 90 86<0 707> 288 86<0 707> 486 86<0 311 397 707>
CounterMasks: 1 1c
LayerCount: 2
Fore
SplineSet
176 0 m 1
 90 0 l 1
 90 707 l 1
 176 707 l 1
 176 0 l 1
374 0 m 1
 288 0 l 1
 288 707 l 1
 374 707 l 1
 374 0 l 1
572 0 m 1
 486 0 l 1
 486 707 l 1
 572 707 l 1
 572 397 l 1
 948 397 l 1
 948 311 l 1
 572 311 l 1
 572 0 l 1
EndSplineSet
EndChar

StartChar: sym082
Encoding: 253 -1 235
Width: 1038
Flags: HW
HStem: 0 21G<466 552 664 750 862 948> 311 86<90 466> 687 20G<466 552 664 750 862 948>
VStem: 466 86<0 311 397 707> 664 86<0 707> 862 86<0 707>
CounterMasks: 1 1c
LayerCount: 2
Fore
SplineSet
862 707 m 1
 948 707 l 1
 948 0 l 1
 862 0 l 1
 862 707 l 1
664 707 m 1
 750 707 l 1
 750 0 l 1
 664 0 l 1
 664 707 l 1
466 707 m 1
 552 707 l 1
 552 0 l 1
 466 0 l 1
 466 311 l 1
 90 311 l 1
 90 397 l 1
 466 397 l 1
 466 707 l 1
EndSplineSet
EndChar

StartChar: uni2AE2
Encoding: 254 10978 236
Width: 840
Flags: HW
HStem: 0 21G<90 176> 116 86<176 750> 311 86<176 750> 506 86<176 750> 687 20G<90 176>
VStem: 90 86<0 116 202 311 397 506 592 707>
LayerCount: 2
Fore
SplineSet
176 0 m 1
 90 0 l 1
 90 707 l 1
 176 707 l 1
 176 592 l 1
 750 592 l 1
 750 506 l 1
 176 506 l 1
 176 397 l 1
 750 397 l 1
 750 311 l 1
 176 311 l 1
 176 202 l 1
 750 202 l 1
 750 116 l 1
 176 116 l 1
 176 0 l 1
EndSplineSet
EndChar

StartChar: sym083
Encoding: 255 -1 237
Width: 840
Flags: HW
HStem: 0 21G<664 750> 116 86<90 664> 311 86<90 664> 506 86<90 664> 687 20G<664 750>
VStem: 664 86<0 116 202 311 397 506 592 707>
LayerCount: 2
Fore
SplineSet
664 707 m 1
 750 707 l 1
 750 0 l 1
 664 0 l 1
 664 116 l 1
 90 116 l 1
 90 202 l 1
 664 202 l 1
 664 311 l 1
 90 311 l 1
 90 397 l 1
 664 397 l 1
 664 506 l 1
 90 506 l 1
 90 592 l 1
 664 592 l 1
 664 707 l 1
EndSplineSet
EndChar
